<?xml version="1.0" encoding="utf-8"?>
<!-- Generator: Adobe Illustrator 21.0.2, SVG Export Plug-In . SVG Version: 6.00 Build 0)  -->
<svg version="1.1" id="Layer_1" xmlns="http://www.w3.org/2000/svg" xmlns:xlink="http://www.w3.org/1999/xlink" x="0px" y="0px"
	 viewBox="0 0 27 27.9" style="enable-background:new 0 0 27 27.9;" xml:space="preserve">
<style type="text/css">
	.st0{fill:#DA282B;}
</style>
<path class="st0" d="M6.3,0c1.1,0.1,2.2,0,3.3,0l0,0c-0.1,3.1,0,6.3,0,9.4c-1.1-0.1-2.2,0-3.4,0C6.3,6.3,6.2,3.1,6.3,0z"/>
<path class="st0" d="M13.5,10.6c3-2.9,5.9-5.9,8.9-8.9c0.8,0.8,1.5,1.6,2.3,2.3c-3,3-5.9,5.9-8.9,8.9C15.1,12.1,14.3,11.4,13.5,10.6
	z"/>
<path class="st0" d="M0.1,18.3c0.6-2.9,3-5.2,5.9-5.9c1-0.1,2.1-0.1,3.1,0c2.8,0.6,5.3,2.9,5.9,5.7c0.4,1.9,0.2,4-0.8,5.8
	c-1.2,2.1-3.4,3.6-5.8,3.9c-3.4,0.5-6.8-1.9-8-5C-0.1,21.3-0.1,19.8,0.1,18.3 M5.9,16.4c-1.2,0.6-2.1,1.8-2.3,3.2
	c-0.4,2.2,1.5,4.6,3.8,4.6c1.7,0.1,3.3-0.9,3.9-2.5c0.9-2-0.1-4.5-2.1-5.3C8.2,15.9,7,15.9,5.9,16.4z"/>
<path class="st0" d="M17.3,16.7c3.2,0,6.5,0,9.7,0c0,1.1,0,2.2,0,3.3c-3.2,0-6.5,0-9.7,0C17.3,18.9,17.3,17.8,17.3,16.7z"/>
</svg>
