<?xml version="1.0" standalone="no"?>
<!DOCTYPE svg PUBLIC "-//W3C//DTD SVG 20010904//EN"
 "http://www.w3.org/TR/2001/REC-SVG-20010904/DTD/svg10.dtd">
<svg version="1.0" xmlns="http://www.w3.org/2000/svg"
 width="89.000000pt" height="89.000000pt" viewBox="0 0 89.000000 89.000000"
 preserveAspectRatio="xMidYMid meet">
<metadata>
Created by potrace 1.11, written by Peter Selinger 2001-2013
</metadata>
<g transform="translate(0.000000,89.000000) scale(0.100000,-0.100000)"
fill="#000000" stroke="none">
<path d="M368 842 c-15 -6 27 -52 221 -246 l239 -239 7 37 c21 111 -34 268
-123 347 -70 62 -157 99 -250 104 -42 3 -85 2 -94 -3z"/>
<path d="M260 807 c-60 -28 -142 -111 -175 -176 -14 -29 -25 -57 -23 -62 2 -5
64 52 138 126 74 74 128 135 120 135 -8 -1 -35 -11 -60 -23z"/>
<path d="M262 737 l-82 -83 50 -49 50 -50 83 83 82 82 -50 50 -50 50 -83 -83z"/>
<path d="M389 646 c-109 -108 -104 -97 -66 -134 l33 -32 82 83 82 83 -33 32
-33 32 -65 -64z"/>
<path d="M117 592 l-47 -48 83 -82 c45 -45 87 -82 93 -82 6 0 30 21 53 46 l43
47 -83 83 c-46 46 -86 84 -89 84 -3 0 -27 -22 -53 -48z"/>
<path d="M475 584 c-22 -25 -39 -48 -38 -51 0 -2 62 -67 136 -143 l135 -138
51 52 51 52 -135 135 c-75 73 -141 135 -148 136 -6 1 -30 -18 -52 -43z"/>
<path d="M45 498 c-15 -98 12 -201 75 -284 78 -103 179 -156 305 -161 44 -1
85 1 92 5 8 5 -69 89 -227 246 l-238 238 -7 -44z"/>
<path d="M392 502 c-12 -13 -19 -29 -15 -35 11 -19 147 -157 155 -157 4 0 19
10 33 23 l26 22 -86 85 c-47 47 -87 85 -88 86 -1 0 -12 -11 -25 -24z"/>
<path d="M305 410 l-49 -49 45 -48 c24 -26 87 -90 139 -140 l96 -93 82 82 82
82 -47 48 c-26 26 -51 48 -56 48 -5 0 -43 -34 -83 -75 -40 -41 -77 -75 -81
-75 -4 0 15 22 42 50 l49 50 -30 31 c-90 97 -131 139 -135 139 -3 0 -27 -22
-54 -50z"/>
<path d="M680 205 c-74 -74 -129 -135 -122 -135 32 0 133 63 174 109 44 49 92
134 86 152 -2 5 -64 -52 -138 -126z"/>
</g>
</svg>
