<svg version="1" xmlns="http://www.w3.org/2000/svg" width="1194.667" height="1194.667" viewBox="0 0 896.000000 896.000000"><path d="M216.9 9.3c-.3 24.6-.7 45.3-.9 46.2-.1.5-.1 1.2 0 1.5.5 1.3.5 6-.1 6-.3 0-.6.7-.6 1.5s.3 1.5.7 1.5c.3 0 .4 2.2 0 5-.4 2.7-.2 5 .2 5 .5 0 .6.5.2 1.1-.3.6-.8 44.8-1 98.2-.2 53.5-.6 103.8-.8 111.9l-.4 14.7 25.6-.6c32.9-.6 66.9-.7 75.1 0 3.6.3 6.9.3 7.5.1.7-.3 1-3.1.9-7.2-.1-3.7-.4-41.5-.7-84-.3-42.5-.8-77.7-1.1-78.2-.3-.5-.1-1.1.3-1.4.5-.3.6-2.5.2-4.8-.3-2.4-.3-5.4 0-6.8.4-1.4.3-3.3-.2-4.2-.5-1-.4-1.9.2-2.3.6-.4.8-1.1.4-1.6-.9-1.5-1-10.9-.2-10.9.4 0 .5-.7.1-1.7-.6-1.5-.7-7.3-.3-9.1.1-.4.1-1.2 0-1.7-.3-1.5-.2-11.9.4-51.3L323-.1l-27.3.7c-32.7.8-55.8.8-68.9.1L217 .2l-.1 9.1zM685.3 104c-72.6 73.3-190.9 191.6-215.2 215.3-21.1 20.7-21.3 20.9-19.4 22.9 1 1.2 6.7 6.9 12.8 12.7 18.4 17.9 49.8 49.3 54.3 54.5 2.3 2.7 4.5 4.7 4.7 4.5.3-.2 64.6-64.5 143-142.9l142.6-142.5-6.4-6c-3.5-3.3-7.5-6.9-8.8-8.1-2.2-1.9-23.4-23.5-47.2-48.1-4.8-5-9.4-9.6-10.2-10.3-1.2-1-10 7.4-50.2 48zM248.6 395.7c-.1.2-5.6.5-12.2.8-29.2 1.1-41.8 3.8-66.4 14.1-2.5 1-4.8 1.8-5.2 1.6-.5-.1-.8.3-.8.8 0 .6-.5 1-1.1 1-.6 0-5.4 2.2-10.7 4.9-14.5 7.2-16.7 8.4-17.2 9.1-.3.4-2.1 1.5-4 2.6-1.9 1-3.7 2.1-4 2.5-.3.3-2.3 1.6-4.5 2.9-2.2 1.3-4.2 2.6-4.5 3-.3.3-3.2 2.5-6.5 4.9-3.3 2.5-6.2 4.7-6.5 5-.3.3-3.4 3.1-7 6.1-11.3 9.6-21.7 20.5-35.3 37.1-1.2 1.5-2.9 3.7-3.7 4.9-.8 1.3-3 4.3-4.7 6.7-1.8 2.4-3.3 4.5-3.3 4.8 0 .3-1.9 3.5-4.3 7.2-2.4 3.8-5.2 8.7-6.2 11-1 2.4-2.2 4.3-2.7 4.3-.4 0-.7.3-.6.7.1.5-.9 2.8-2.1 5.3-1.3 2.5-2.3 4.6-2.2 4.8.1.1-.8 2.4-1.9 5-2.2 5-7.7 20.5-8.5 23.8-.2 1-1.3 5.5-2.4 9.9-1.9 7.9-2.4 10.8-3.8 23.5-1 8.3-1 70.2 0 75.5.4 2.2.9 6.2 1.2 9 .3 2.7.7 5.7 1 6.5.2.8.7 3.1 1 5 .3 1.9 1.1 5.3 1.7 7.5.6 2.2 1.2 5.3 1.5 6.9C24.4 725 34 748.1 43.8 765c5.7 9.9 6.5 11.2 7.9 12.8.7.7 1.3 1.7 1.3 2.1 0 1.1 13.8 19.2 20.3 26.6 13.6 15.6 33.5 33.6 48.2 43.5 2.8 1.9 5.2 3.6 5.5 4 1.8 2.1 28.5 16.7 39 21.3 1.9.8 5.6 2.4 8.2 3.6 2.6 1.1 5.2 2.1 5.8 2.1.6 0 1.8.4 2.8 1 2.2 1.2 15.7 5.2 22.2 6.6 1.4.3 4.1.9 6 1.4 5.3 1.4 11.7 2.4 22 3.7 11.5 1.3 50.1.6 52.9-1.1.3-.2 3.1-.7 6.1-1 3-.4 8.1-1.3 11.2-2 3.2-.7 6-1.1 6.3-.8.3.3.5 0 .5-.7s.4-1 .9-.6c.5.3 2.9-.1 5.3-.8 4.1-1.4 12.5-3.9 14.1-4.3.4-.1.9-.3 1.2-.4.3-.1.8-.3 1.3-.5.4-.1 1.6-.5 2.7-.9s3.4-1.3 5-1.9c1.7-.6 5.3-2.1 8.2-3.4 6.7-3 10.8-4.5 10.9-4.1.1.2 1-.4 2-1.3 1.8-1.5 5.5-3.2 6.3-2.9.2.1.7-.3 1-.8.3-.5 2.9-2.1 5.6-3.5 10.8-5.4 35-22.8 46.9-33.7 10.1-9.2 26.6-27.3 31.9-35 1.7-2.5 3.9-5.4 4.9-6.4 1-1.1 2-2.8 2.4-3.8.3-1 .9-1.8 1.2-1.8.4 0 1.6-1.7 2.7-3.8 1.1-2 2.3-3.9 2.6-4.2.4-.3 2.3-3.7 4.3-7.5 2.1-3.9 4.1-7.7 4.6-8.5 1.9-3.3 5-10.7 5-11.8 0-.7.5-1.2 1-1.2.6 0 1-.8 1-1.8 0-.9.6-2.9 1.4-4.3 1.5-2.9 6.9-18.4 7.3-20.9.1-.8 1.1-4.7 2.3-8.5 1.1-3.9 2.3-8.6 2.6-10.5.3-1.9.8-3.8 1-4.1.2-.4.6-3.1.9-6 .4-3 .9-6.1 1.1-6.9.3-.8.8-3.5 1-5.9.2-2.4.7-6 1-8 1-6.1 1.2-44.2.3-51.6-3.1-26.2-4.1-31.8-10.4-54.5-3.4-12.2-16.5-40.2-23.2-49.7-1.3-1.7-2.3-3.6-2.3-4.2 0-.6-.3-1.1-.8-1.1-.4 0-1.6-1.6-2.6-3.5-1.1-1.9-2.3-3.5-2.8-3.5-.4 0-.8-.5-.8-1.1 0-.9-4.2-6.8-7.5-10.5-.5-.6-3-3.5-5.5-6.4-4.8-5.7-17.7-18.8-25.1-25.6-8.8-7.9-35.6-27.4-37.8-27.4-.5 0-1.1-.3-1.3-.8-.6-1.3-25.4-14.1-27.5-14.2-.7 0-1.3-.4-1.3-1 0-.5-.3-.9-.7-.9-.5.1-1.1 0-1.5-.1-.5-.1-1.1-.3-1.5-.5-1.1-.3-6.4-2.4-8.8-3.4-3.5-1.6-18.9-6.5-21.5-6.8-1.4-.2-3.6-.8-5-1.3-5.5-2-11.2-2.5-36.5-3.6-6.6-.3-13.8-.6-16-.7-2.2-.1-5 .1-6.2.5-1.3.4-2.3.4-2.3 0 0-.7-3.7-1.1-4.4-.5zm17 119.4c11.4.4 35.4 6 38.8 9.1.6.4 1.8.8 2.8.8 1 0 1.8.4 1.8 1 0 .5.4 1 1 1 2.3 0 18.1 8.2 23.5 12.2 11 8.1 21.6 18.4 28.1 27.4 1 1.4 2.4 3.2 2.9 3.8 1.5 1.7 3.3 4.7 4.7 7.6.7 1.4 1.5 2.7 1.9 3 1.2 1 7.8 15.8 10.3 23.4 3.5 10.5 5.2 18.1 6.3 28.1 1.4 13.7.2 33.2-2.6 42.4-.6 1.9-.8 3.8-.5 4.2.3.5 0 .9-.5.9-.6 0-1 .3-.9.7 1 3.9-14.3 37.1-20.7 44.9-1.3 1.6-3.7 4.4-5.2 6.3-3.8 4.6-13.2 14-17.4 17.3-5.2 4.2-14.9 10.8-15.8 10.8-.5 0-2 .9-3.5 2.1-1.4 1.1-2.6 1.8-2.6 1.5 0-.2-2.6.9-5.7 2.5-3.2 1.6-6.5 2.9-7.3 2.9-.9 0-2 .4-2.5.9-1.2 1-16 5-21.3 5.7-2 .3-5.3.7-7.2 1-7.8 1.1-32.2.4-39-1-1.4-.3-3.8-.8-5.5-1.2-4.5-.9-14.6-4-19.1-5.9-2.1-.9-3.9-1.5-3.9-1.4 0 .8-20.8-12.1-25.9-16.1-5.4-4.2-25.6-25.2-25.6-26.6 0-.3-1.2-2.1-2.6-4-2.9-3.7-5-7.2-8.6-14.4-1.3-2.5-2.6-4.7-2.9-5-.3-.3-.9-1.8-1.3-3.5-.4-1.6-1.1-3.2-1.5-3.5-.8-.6-5.8-17-6.6-21.5-.2-1.7-.9-5.3-1.4-8-1.3-7-1-28.7.5-35.4.7-3.1 1.5-7 1.8-8.6 1.1-6.3 1.7-8.7 4.2-15.7 5.4-15 13.4-29.6 22.8-41.3 8.5-10.7 23.5-24.2 33.7-30.4 6.1-3.8 19.3-10 20.1-9.5.4.3.8.1.8-.4s.6-.9 1.3-.9c.6-.1 4.4-1.1 8.2-2.3 3.9-1.2 8-2.4 9.3-2.6 1.2-.2 3.4-.6 5-.9 1.5-.3 6.5-.8 11.2-1.1 4.7-.3 8.7-.8 8.9-1 .2-.2.7-.2 1 .1.4.2 3.4.5 6.7.6zM570.6 536.9c-.1.4-.2 24.2-.2 53l.1 52.5 154 .1c84.7 0 154.8-.1 155.8-.3 1.6-.4 1.7-3.8 1.7-53.1v-52.7H726.4c-85.5 0-155.6.2-155.8.5z"/></svg>