<svg version="1.1" id="Layer_1" xmlns="http://www.w3.org/2000/svg" viewBox="0 0 44.8 44.8">
	<path fill="#EFEFEF" d="M15.8,1c10.9-3.6,23.8,2.8,27.5,13.6c2.8,7.5,1.2,16.5-4.1,22.5c-5.3,6.2-14,9-21.9,7.1
		c-9.2-2-16.6-10.5-17.2-19.9C-1,14.1,6,3.9,15.8,1 M17.6,22.8c2,2.1,3.9,4.3,6.1,6.1c0.4-0.4,1.2-1,1.7-1.4
		c-1.5-1.6-3.1-3.1-4.6-4.6c1.5-1.6,3-3.2,4.5-4.7c-0.4-0.4-1.1-1.1-1.5-1.5C21.7,18.7,19.6,20.7,17.6,22.8z"/>
	<path fill="#747474" d="M17.6,22.8c2-2.1,4.1-4.1,6.1-6.1c0.4,0.4,1.1,1.1,1.5,1.5c-1.5,1.6-3,3.1-4.5,4.7c1.5,1.5,3.1,3.1,4.6,4.6
		c-0.4,0.3-1.2,1-1.7,1.4C21.5,27.1,19.6,24.9,17.6,22.8z"/>
</svg>
