<svg version="1.1" id="Layer_1" xmlns="http://www.w3.org/2000/svg" viewBox="0 0 44.8 44.8">
	<path fill="#EFEFEF" d="M15.8,1c10.9-3.6,23.7,2.7,27.6,13.5c2.9,7.6,1.3,16.7-4.2,22.7c-5.1,5.8-13.3,8.7-20.9,7.2
		c-8.9-1.5-16.4-9-17.9-18C-1.8,15.7,5.2,4.1,15.8,1 M19.4,17.3c1.5,1.6,3.1,3.1,4.6,4.7c-1.5,1.6-3,3.1-4.5,4.7
		c0.4,0.4,1.2,1.1,1.6,1.5c2.1-2,4.1-4,6.1-6.1c-2-2.1-3.9-4.2-6.1-6.1C20.7,16.2,19.8,16.9,19.4,17.3z"/>
	<path fill="#747474" d="M19.4,17.3c0.4-0.3,1.3-1,1.7-1.4c2.2,1.9,4.1,4,6.1,6.1c-2,2.1-4.1,4.1-6.1,6.1c-0.4-0.4-1.2-1.1-1.6-1.5
		c1.5-1.6,3-3.2,4.5-4.7C22.5,20.4,21,18.8,19.4,17.3z"/>
</svg>
