<svg version="1.1" xmlns="http://www.w3.org/2000/svg" viewBox="0 0 188.4 111.8">
<g>
	<path style="fill:#ED2124;" d="M125,0c2.1,0.1,4.1,0.1,6.2,0c0.3,0.3,0.8,0.7,0.7,1.2c0.1,6.2,0,12.4,0,18.6
		c0.1,0.8-0.4,1.7-1.3,1.6c-2-0.2-4.1,0.3-6.1-0.3c-0.3-1.6-0.2-3.3-0.2-5c0-4.8,0-9.7,0-14.6C124.3,1,124.7,0.5,125,0z"/>
	<path style="fill:#ED2124;" d="M157.5,6.2c0.6-0.6,1.2-1.1,1.9-1.5c1.1-0.3,1.9,0.6,2.6,1.3c1,1.1,2.2,2,3.4,2.9
		c-0.5,1.2-1.7,2-2.6,3c-5.4,5.5-11,10.9-16.3,16.5c-0.4,0.5-1.2,0.6-1.6,0.2c-1.3-1.2-2.5-2.6-3.9-3.8c-0.7-0.5-0.5-1.6,0.1-2.1
		C146.5,17.1,152,11.7,157.5,6.2z"/>
	<path style="fill:#ED2124;" d="M17.5,19.3c4.5-0.7,9.2-0.1,13.2,2.1c4.7,2.5,8.2,6.8,10,11.8c0.1,0.5,0.4,1.3-0.1,1.7
		c-1.8,0.2-3.6,0-5.4,0.2c-1.8,0.2-3.4-0.8-4.3-2.3c-2-3-5.3-5-8.8-5.3c-3.1-0.2-6.4,0.7-8.9,2.7c-3.7,2.8-5.6,7.9-4.6,12.5
		c0.6,2.8,2,5.5,4.3,7.4c3.4,3,8.6,3.8,12.8,2c2.6-1.1,4.6-3.2,6.1-5.5c0.6-1,2-0.9,3-0.9c1.9,0.1,3.8-0.1,5.7,0.1
		c0.6,0.3,0.3,1,0.2,1.5c-1.7,5.1-5.4,9.5-10.1,11.9c-4.5,2.3-9.8,2.9-14.8,1.7c-4.7-1.1-8.9-4-11.7-7.9c-3.5-4.7-4.8-10.8-3.9-16.5
		C1.8,28,8.8,20.5,17.5,19.3z"/>
	<path style="fill:#ED2124;" d="M46.3,19.2c1.9,0,3.8,0,5.8,0c0.7-0.1,1.2,0.7,1.2,1.3c0.1,2.3,0,4.6,0,6.9c0,10.9,0.2,21.9,0,32.8
		c0,0.4-0.1,0.9-0.3,1.3c-2.1,0.3-4.3,0-6.4,0.1c-0.5,0-1.3,0.1-1.6-0.5c-0.2-1.3-0.1-2.6-0.2-3.8c0-11.3,0-22.6,0-33.9
		c0-1.3-0.1-2.6,0.2-3.8C45.2,19.2,45.8,19.2,46.3,19.2z"/>
	<path style="fill:#ED2124;" d="M64.3,28.7c4.1-1.7,8.8-1.9,13.2-0.9c2.3,0.6,4.6,1.4,6.2,3.2c1.8,1.8,2.2,4.5,2.3,7
		c0,7.3,0,14.6,0,21.8c0,0.7-0.1,1.6-0.9,1.7c-1.3,0.2-2.7-0.1-4,0c-1.1,0-2.2,0.3-3.3-0.1c-0.8-0.4-0.5-1.4-0.6-2.1
		c-1-0.1-1.7,0.6-2.6,0.9c-3.5,1.6-7.6,1.9-11.3,0.7c-2.8-0.8-4.9-3.3-5.4-6.2c-0.5-3.2-0.3-6.8,1.8-9.4c1-1.4,2.6-2.2,4.1-2.9
		C67.6,41,71.7,41,75.5,40c2.1-0.7,2-4,0-4.8c-2.2-0.5-4.6-0.9-6.7,0c-1.3,0.6-1.3,2.3-2.2,3.2c-1.1,1-2.7,0.7-4.1,0.7
		c-1.2-0.1-2.4,0.1-3.6-0.1c-0.7-0.1-0.6-0.9-0.5-1.4C58.7,33.9,60.8,30.2,64.3,28.7 M72.3,46.9c-1.7,0.4-3.5,0.6-5,1.7
		c-1.3,1.3-1.6,3.4-0.8,5.1c0.5,1.1,1.7,1.8,2.9,1.8c2.2,0.2,4.7-0.4,6.1-2.3c1.4-2,1.6-4.7,1.2-7.1C75.2,46,73.8,46.6,72.3,46.9z"
		/>
	<path style="fill:#ED2124;" d="M102.5,29.5c2-1,4.1-1.9,6.4-1.9c1.3-0.1,0.9,1.6,1.1,2.4c-0.1,2,0.6,4.1-0.1,6
		c-1.5,0.1-3.1,0-4.6,0.4c-3.1,0.9-5.6,3.8-5.7,7.1c0,5.6-0.1,11.2-0.1,16.7c0,0.5-0.1,1.3-0.8,1.3c-2.2,0.2-4.4,0-6.6,0.1
		c-0.8,0.1-1.2-0.7-1.1-1.4c0-10,0-19.9,0-29.9c-0.1-0.7,0.4-1.5,1.2-1.4c2.1,0,4.1-0.1,6.2,0.1c1.2,0.4,0.8,1.9,1,2.9
		C100.4,31.3,101.2,30.1,102.5,29.5z"/>
	<path style="fill:#ED2124;" d="M123.6,27.7c3.8-0.9,8-0.4,11.4,1.5c4.5,2.3,7.8,6.7,8.9,11.6c0.9,4.1,0.3,8.6-1.8,12.3
		c-2.2,4.1-6.2,7-10.6,8.2c-4.5,1.2-9.5,0.5-13.3-2.1c-4.8-3-7.9-8.6-7.9-14.3c-0.1-4.3,1.4-8.5,4.2-11.7
		C116.9,30.4,120.1,28.5,123.6,27.7 M124.6,36.3c-2.9,0.9-5.1,3.5-5.8,6.4c-0.5,2.6,0.1,5.4,1.8,7.4c1.9,2.3,5.1,3.6,8,3.1
		c3.3-0.5,6.1-3.3,6.9-6.5c1.1-3.7-0.9-8-4.2-9.8C129.3,35.9,126.8,35.8,124.6,36.3z"/>
	<path style="fill:#ED2124;" d="M149.7,36.7c6.4-0.1,12.8,0,19.1-0.1c0.7,0,1.8,0,1.8,0.9c0.2,1.8,0.1,3.7,0.1,5.5
		c0,0.8-0.7,1.5-1.5,1.4c-6.3,0-12.6,0-18.9,0c-0.6,0-1.4-0.2-1.4-1c-0.1-2,0-4,0-5.9C148.8,37.1,149.3,36.8,149.7,36.7z"/>
	<path style="fill:#060709;" d="M107.4,66.5c1.8-0.3,3.6,0.1,5.4-0.1c0.9-0.1,2.3-0.2,2.5,1c0.1,3.3-0.1,6.6,0,9.9
		c0.1,7.6,0,15.3,0.1,22.9c0.2,1.1,0,2.4,0.9,3.2c1.4,1.3,3.8-0.3,5,1.2c0.2,1.9,0.1,3.9,0.1,5.9c-0.4,1.1-1.7,0.7-2.6,0.8
		c-2.9,0.1-6,0-8.4-1.8c-2.3-1.6-3.4-4.3-3.4-7c-0.2-11.6-0.1-23.3,0-34.9C106.6,67,107,66.7,107.4,66.5z"/>
	<path style="fill:#060709;" d="M161,66.5c2.1-0.2,4.3,0,6.4-0.2c0.7-0.1,1.7,0.1,1.7,1c0.1,2.9-0.1,5.9,0,8.8
		c0.1,1.4-0.2,2.9,0.3,4.3c2-1.7,4.5-2.7,7.1-2.6c3.2,0.1,6.6,0.8,8.8,3.3c2.2,2.4,2.7,5.7,2.9,8.8c0.2,4.1,0.4,8.3-0.4,12.4
		c-0.5,2.9-2,5.6-4.4,7.3c-2.9,2.2-6.9,2.7-10.3,1.4c-1.5-0.4-2.7-1.4-4-2.1c-0.1,0.6,0,1.4-0.5,1.8c-0.8,0.5-1.8,0.3-2.7,0.3
		c-1.5-0.1-2.9,0.1-4.4,0c-0.7-0.1-1-0.8-0.9-1.5c0-14,0-27.9,0-41.9C160.6,67.4,160.8,67,161,66.5 M173,85.9
		c-1.6,0.4-2.9,1.8-3.2,3.4c-0.9,3.8-0.9,7.8,0.2,11.6c1,3.5,6.5,3.9,8.4,0.9c1.4-2.1,1.2-4.7,1.2-7.1c0-2.5,0.2-5.2-1.4-7.3
		C177.1,85.9,174.9,85.5,173,85.9z"/>
	<path style="fill:#060709;" d="M88.2,78.3c4.3-0.6,9.1-0.1,12.6,2.7c0.6,0.5,1.5,1.2,1.2,2.1c-1,1.3-2.5,2.2-3.5,3.5
		c-0.6,0.5-1.2,1.5-2.1,1.4c-1.1-0.6-2-1.5-3.2-1.9c-2.1-0.8-4.6-0.2-6,1.5c-1.7,2.1-2,4.9-2,7.5c0,2.6,0.5,5.5,2.5,7.3
		c1.9,1.8,4.9,1.9,7,0.4c0.8-0.5,1.5-1.4,2.5-1.1c1.1,0.7,1.8,1.8,2.7,2.6c0.7,0.7,1.5,1.3,2.1,2.1c0.5,1-0.8,1.7-1.4,2.3
		c-3,2.4-7,3.2-10.7,2.7c-4.1-0.3-8.2-2.3-10.5-5.8c-2.3-3.3-2.7-7.4-2.7-11.3c0.1-4,0.8-8.1,3.3-11.3C81.9,80.5,85,78.8,88.2,78.3z
		"/>
	<path style="fill:#060709;" d="M125.7,80.6c0-0.7,0.1-1.8,0.9-2.1c1.3-0.3,2.7,0.1,4,0c1.1,0,2.2-0.3,3.2,0.2
		c0.7,0.7,0.5,1.8,0.5,2.7c-0.1,5-0.1,9.9-0.1,14.9c0.2,2,0,4.2,1.3,5.8c1.8,2.3,5.7,2.5,7.6,0.2c1.5-1.6,1.4-4,1.5-6
		c0-5.5,0-10.9,0-16.4c0-0.6,0.4-1.5,1.1-1.4c2,0,3.9,0.1,5.9,0c0.8-0.1,1.6,0.6,1.6,1.4c0,9.9,0,19.9,0,29.8
		c0.1,1.1-0.9,1.8-1.9,1.6c-2.1-0.2-4.3,0.2-6.4-0.3c-0.1-0.6-0.2-1.3-0.5-1.9c-2.6,1.9-5.9,2.9-9.2,2.4c-3.2-0.3-6.3-2.1-7.9-4.9
		c-1.3-2.2-1.8-4.9-1.7-7.4C125.8,93,125.8,86.8,125.7,80.6z"/>
</g>
</svg>
