<svg version="1.1" xmlns="http://www.w3.org/2000/svg" viewBox="0 0 128 128">
<path fill="#c8c8c8" opacity="1.00" d=" M 62.76 0.00 L 65.01 0.00 C 81.21 0.32 97.21 6.87 108.73 18.30 C 120.68 29.85 127.62 46.20 128.00 62.79 L 128.00 65.04 C 127.67 81.91 120.53 98.55 108.25 110.16 C 96.82 121.26 81.13 127.61 65.24 128.00 L 62.52 128.00 C 46.02 127.54 29.78 120.62 18.30 108.72 C 6.92 97.25 0.39 81.35 0.00 65.23 L 0.00 62.96 C 0.33 46.31 7.28 29.88 19.28 18.30 C 30.75 6.92 46.65 0.39 62.76 0.00 M 39.66 43.26 C 46.51 50.21 53.49 57.04 60.34 64.00 C 54.14 70.27 47.89 76.49 41.64 82.71 C 40.38 84.02 38.79 85.22 38.43 87.11 C 38.60 89.60 41.84 90.26 43.25 88.35 C 50.20 81.49 57.04 74.51 64.00 67.66 C 70.25 73.84 76.45 80.07 82.66 86.30 C 83.98 87.57 85.18 89.20 87.10 89.57 C 89.63 89.41 90.26 86.11 88.31 84.71 C 81.47 77.77 74.50 70.95 67.66 64.00 C 73.86 57.74 80.10 51.52 86.35 45.30 C 87.61 43.99 89.20 42.79 89.57 40.90 C 89.41 38.37 86.11 37.74 84.71 39.69 C 77.77 46.53 70.95 53.50 64.00 60.34 C 57.74 54.14 51.53 47.91 45.32 41.67 C 44.00 40.40 42.80 38.79 40.89 38.43 C 38.39 38.59 37.73 41.87 39.66 43.26 Z" />
<path fill="#ffffff" opacity="1.00" d=" M 39.66 43.26 C 37.73 41.87 38.39 38.59 40.89 38.43 C 42.80 38.79 44.00 40.40 45.32 41.67 C 51.53 47.91 57.74 54.14 64.00 60.34 C 70.95 53.50 77.77 46.53 84.71 39.69 C 86.11 37.74 89.41 38.37 89.57 40.90 C 89.20 42.79 87.61 43.99 86.35 45.30 C 80.10 51.52 73.86 57.74 67.66 64.00 C 74.50 70.95 81.47 77.77 88.31 84.71 C 90.26 86.11 89.63 89.41 87.10 89.57 C 85.18 89.20 83.98 87.57 82.66 86.30 C 76.45 80.07 70.25 73.84 64.00 67.66 C 57.04 74.51 50.20 81.49 43.25 88.35 C 41.84 90.26 38.60 89.60 38.43 87.11 C 38.79 85.22 40.38 84.02 41.64 82.71 C 47.89 76.49 54.14 70.27 60.34 64.00 C 53.49 57.04 46.51 50.21 39.66 43.26 Z" />
</svg>
