<svg version="1.1" xmlns="http://www.w3.org/2000/svg" viewBox="0 0 230.7 144.3">
<g>
	<rect x="0.1" y="0.1" style="fill:#3798D4;stroke:#000000;stroke-width:0.25;" width="76.8" height="144"/>
	<rect x="153.8" y="0.1" style="fill:#3798D4;stroke:#000000;stroke-width:0.25;" width="76.8" height="144"/>
</g>
<rect x="76.9" y="0.1" style="fill:#FFFFFF;stroke:#000000;stroke-width:0.25;" width="76.8" height="144"/>
<g>
	<g>
		<g>
			<g>
				<path style="fill:#24923C;stroke:#000000;stroke-width:0.125;" d="M112.7,92c-3.1-1.3-4.4-4.6-4.1-6.4c0.1-0.8,0.5-1.2,0.8,0
					c0.4,1.5,1.5,1.2,2.4,4.1c0.5,1.5,0.9,1.8,2.8,2.7"/>
				<path style="fill:#24923C;stroke:#000000;stroke-width:0.125;" d="M112.1,92.2c-5.7-0.9-5.6,1.7-8.4,2.6
					c-0.8,0.2-1.1,0.7,0.2,0.8c5.8,0.5,6.7-3.8,10-2.5"/>
				<path style="fill:#24923C;stroke:#000000;stroke-width:0.125;" d="M105.9,90.1c-1.7-0.8-4.7-1.9-6.5-1.3
					c-1.8,0.6-2.1,0.8-0.7,1.5c4.8,2.4,6.6,0.1,8.7,0.6"/>
				<path style="fill:#24923C;stroke:#000000;stroke-width:0.125;" d="M103.8,88.9c-3.4-2.4-2.8-3.9-3.7-5.3
					c-0.9-1.4-0.8-1.8,0.5-0.9c4.3,2.9,2.5,5,4.1,5.9"/>
				<path style="fill:#24923C;stroke:#000000;stroke-width:0.125;" d="M99.8,85.2c-3.1-4.2-0.5-5.3-0.7-6.3
					c-0.2-1.1,0.1-1.3,0.7,0.1c1.6,3.5-1.2,4.7,0.8,6.7"/>
				<path style="fill:#24923C;stroke:#000000;stroke-width:0.125;" d="M95.5,78.9c-0.8-1.7-2.5-2.3-3.3-2.2c-0.8,0.1-1.8,0.2-2.3,0
					c-0.6-0.2-0.6,0.7,1,1.3c1.6,0.7,5.1,2,5.9,3.4"/>
				<path style="fill:#24923C;stroke:#000000;stroke-width:0.125;" d="M93.9,70.6c0.1-1.9,0.4-3.1,1.6-4.1c1.2-1.1,1.8-1.2,1.3-0.3
					c-1,1.9-0.4,3.3-2.5,6"/>
				<path style="fill:#24923C;stroke:#000000;stroke-width:0.125;" d="M94.2,66.9C94,63.9,92.5,64,92,62.7c-0.5-1.3-0.8-0.2-0.6,1
					c0.3,2,2.4,3.4,2.4,5.3"/>
				<path style="fill:#24923C;stroke:#000000;stroke-width:0.125;" d="M94.1,68.3c0.1-1.8-0.1-3.4-0.8-4.5c-0.6-1.1-0.5,0.3-1,1.5
					c-0.6,1.4-0.4,4.4,1.6,6.7"/>
				<path style="fill:#24923C;stroke:#000000;stroke-width:0.125;" d="M95,63c0.2-3.9-1.4-3.8-1.9-5.5c-0.5-1.7-0.6-1.3-0.8,0.1
					c-1,6.1,2.3,5.4,2,7.7"/>
				<path style="fill:#24923C;stroke:#000000;stroke-width:0.125;" d="M96.7,58.1c0.4-2.5-0.5-3.1,0.4-4.7c0.5-0.8,1.2-1.8,1-0.5
					C97.9,54.2,98.1,56.2,96.7,58.1z"/>
				<path style="fill:#24923C;stroke:#000000;stroke-width:0.125;" d="M95.1,62.1c0.4-3-1.7-5.6-0.2-8.1c0.8-1.3,1.2-1.5,1.2-0.4
					c-0.2,1.9,1.8,4-0.7,7.9"/>
				<g>
					<path style="fill:#24923C;stroke:#000000;stroke-width:0.125;" d="M110.4,91c4.2,1.1,6.4,2,7.6,3.4c-0.1,0.6,0,1.2-0.1,1.5
						c-3.2-3.4-6.8-2.7-11.5-5.3c-15.6-8.8-14.3-22.4-9.8-32.4c0.6-1.3,1.2-2.6,1.3-4c0.1-1.5,1.4-2.4,2.9-2.9
						c1.3-0.4,0.9,0.2,0.4,0.7c-1,1-0.2,2.4-2.9,4.2c-0.7,0.4-0.9,1.1-1.3,2C89.3,76.5,99.1,87.9,110.4,91z"/>
				</g>
				<path style="fill:#24923C;stroke:#000000;stroke-width:0.125;" d="M95.5,62.3c0.4-1.2,1.5-3.8,3.1-4.2c1.6-0.4,3.1-1.2,3.9-3.4
					c0.3-0.8,0.8-2.4-0.3-1.1c-1.1,1.3-3.1,0.2-5.2,4.4c-0.4,0.8-1.3,2.4-2,4.8"/>
				<path style="fill:#24923C;stroke:#000000;stroke-width:0.125;" d="M94.8,63.1c1.1-3.8,3.2-3.2,4.3-4.6c1-1.4,1.4-1.4,0.8,0.4
					c-1.5,4.3-4.6,4.1-5.1,6.1"/>
				<path style="fill:#24923C;stroke:#000000;stroke-width:0.125;" d="M94.5,65.4c1.1-3.9,3.8-3.4,4.9-5c1.1-1.7,1.6-1.8,1.3,0.1
					c-0.6,5.3-6,3.4-6.4,6.3"/>
				<path style="fill:#24923C;stroke:#000000;stroke-width:0.125;" d="M93.8,68.1c0.4-4.2,3.9-3.7,4.9-4.8c0.4-0.4,0.6,0.6-0.1,1.7
					c-1.8,2.7-4,0.9-4.2,3.7"/>
				<path style="fill:#24923C;stroke:#000000;stroke-width:0.125;" d="M94.5,73.4c-0.4-4.2-3.1-5.5-3.8-7.1
					c-0.6-1.6-0.5,0.3-0.4,1.3c0.8,5.6,3,3.7,3.6,6.8"/>
				<path style="fill:#24923C;stroke:#000000;stroke-width:0.125;" d="M94,74.8c-0.6-2.9,0.5-5.2,2.2-6.4c1.7-1.2,1.3-0.5,1.1,0.5
					c-0.7,5-3.1,3-2.4,6.6"/>
				<path style="fill:#24923C;stroke:#000000;stroke-width:0.125;" d="M94.7,75.8c-0.8-2.9-3-4.1-4.5-4.2c-1.6-0.1-0.4,0.5-0.2,1.1
					c1.4,3.3,3.8,1.9,4.7,4.4"/>
				<path style="fill:#24923C;stroke:#000000;stroke-width:0.125;" d="M97.8,82.4c-1.4-2.1-1.2-3.6-2.6-4.9
					c-1.5-1.3-2.6-1.4-3.4-2.2c-0.8-0.8-0.8,0.2-0.1,1.6c1.6,3.2,3.9,2.9,5.2,5.2"/>
				<path style="fill:#24923C;stroke:#000000;stroke-width:0.125;" d="M97,81.1c-0.7-1.3-0.2-5.3,0.3-7.3c0.5-2,0.1-2.4-0.8-1.3
					c-1.2,1.3-2.8,3.3,0.3,8.5"/>
				<path style="fill:#24923C;stroke:#000000;stroke-width:0.125;" d="M97.7,82.6c-3-3.7-5.2-2.2-6.7-3.1c-1.5-0.9-0.7,0.5-0.3,0.9
					c4.3,4.3,4.9,0.9,7.3,3.4"/>
				<path style="fill:#24923C;stroke:#000000;stroke-width:0.125;" d="M97.5,82.1C96,79.8,96,77.6,97,75.5c0.9-1.9,1.2-1.4,1.1,0.1
					c-0.1,1.4,1.1,2,0.3,4.7c-0.3,0.9-0.4,2.7,0.7,3.9"/>
				<path style="fill:#24923C;stroke:#000000;stroke-width:0.125;" d="M101,86.4c-1.2-1.4-2.3-2.8-4.2-3c-1.9-0.2-2.5-0.5-1.6,0.7
					c3.4,4.1,5.1,2.3,6.8,3.6"/>
				<path style="fill:#24923C;stroke:#000000;stroke-width:0.125;" d="M103.3,87.8c-1.5-0.9-4.5-1.6-6.7-1.2c-1.2,0.3-0.8,0.5,0,0.7
					c1.6,0.5,2.1,2.1,5.6,1.8c0.7-0.1,1.4-0.3,2.6,0.4"/>
				<path style="fill:#24923C;stroke:#000000;stroke-width:0.125;" d="M104.8,89c-1.7-1.1-2.8-3.6-3.1-6.2c-0.1-1.4,0.2-2.1,0.8-0.6
					c0.8,1.8,2.1,1.8,2.9,4.6c0.8,2.5,1.3,2.8,2.6,3.3"/>
				<path style="fill:#24923C;stroke:#000000;stroke-width:0.125;" d="M108.9,90.9c-2.3-1.3-3.5-3.2-3.8-5.5c-0.3-2.1,0.3-1.8,1-0.5
					c0.7,1.2,2,1.1,2.8,3.7c0.3,0.9,0.9,2.3,2.7,2.8"/>
				<path style="fill:#24923C;stroke:#000000;stroke-width:0.125;" d="M111.2,91.6c-3.6-1.1-7-1-9,0.5c-1,0.7-0.7,1,0.1,0.9
					c2.4-0.4,3.4,1,6.4-0.3c0.6-0.3,1.7-0.6,4.1,0.3"/>
			</g>
			<g>
				<path style="fill:#24923C;stroke:#000000;stroke-width:0.125;" d="M117.9,92c3.1-1.3,4.4-4.6,4.1-6.4c-0.1-0.8-0.5-1.2-0.8,0
					c-0.4,1.5-1.5,1.2-2.4,4.1c-0.5,1.5-0.9,1.8-2.8,2.7"/>
				<path style="fill:#24923C;stroke:#000000;stroke-width:0.125;" d="M118.5,92.2c5.7-0.9,5.6,1.7,8.4,2.6c0.8,0.2,1.1,0.7-0.3,0.8
					c-5.8,0.5-6.7-3.8-10-2.5"/>
				<path style="fill:#24923C;stroke:#000000;stroke-width:0.125;" d="M124.7,90.1c1.7-0.8,4.7-1.9,6.5-1.3c1.8,0.6,2.1,0.8,0.7,1.5
					c-4.8,2.4-6.6,0.1-8.7,0.6"/>
				<path style="fill:#24923C;stroke:#000000;stroke-width:0.125;" d="M126.8,88.9c3.4-2.4,2.8-3.9,3.7-5.3c0.9-1.4,0.8-1.8-0.5-0.9
					c-4.3,2.9-2.5,5-4.1,5.9"/>
				<path style="fill:#24923C;stroke:#000000;stroke-width:0.125;" d="M130.8,85.2c3.1-4.2,0.5-5.3,0.7-6.3c0.2-1.1-0.1-1.3-0.7,0.1
					c-1.6,3.5,1.2,4.7-0.8,6.7"/>
				<path style="fill:#24923C;stroke:#000000;stroke-width:0.125;" d="M135.1,78.9c0.8-1.7,2.5-2.3,3.3-2.2c0.8,0.1,1.8,0.2,2.3,0
					c0.6-0.2,0.6,0.7-1,1.3c-1.6,0.7-5.1,2-5.9,3.4"/>
				<path style="fill:#24923C;stroke:#000000;stroke-width:0.125;" d="M136.7,70.6c-0.1-1.9-0.4-3.1-1.6-4.1
					c-1.2-1.1-1.8-1.2-1.3-0.3c1,1.9,0.4,3.3,2.5,6"/>
				<path style="fill:#24923C;stroke:#000000;stroke-width:0.125;" d="M136.4,66.9c0.3-2.9,1.8-2.8,2.2-4.2c0.5-1.3,0.8-0.2,0.6,1
					c-0.3,2-2.4,3.4-2.4,5.3"/>
				<path style="fill:#24923C;stroke:#000000;stroke-width:0.125;" d="M136.5,68.3c-0.1-1.8,0.1-3.4,0.8-4.5c0.6-1.1,0.5,0.3,1,1.5
					c0.6,1.4,0.4,4.4-1.6,6.7"/>
				<path style="fill:#24923C;stroke:#000000;stroke-width:0.125;" d="M135.6,63c-0.2-3.9,1.4-3.8,1.9-5.5c0.5-1.7,0.6-1.3,0.8,0.1
					c1,6.1-2.3,5.4-2,7.7"/>
				<path style="fill:#24923C;stroke:#000000;stroke-width:0.125;" d="M133.9,58.1c-0.4-2.5,0.5-3.1-0.4-4.7c-0.5-0.8-1.2-1.8-1-0.5
					C132.7,54.2,132.5,56.2,133.9,58.1z"/>
				<path style="fill:#24923C;stroke:#000000;stroke-width:0.125;" d="M135.5,62.1c-0.4-3,1.7-5.6,0.2-8.1c-0.8-1.3-1.2-1.5-1.2-0.4
					c0.2,1.9-1.8,4,0.7,7.9"/>
				<g>
					<path style="fill:#24923C;stroke:#000000;stroke-width:0.125;" d="M120.2,91c-4.2,1.1-6.4,2-7.6,3.4c0.1,0.6,0,1.2,0.1,1.5
						c3.2-3.4,6.8-2.7,11.5-5.3c15.6-8.8,14.3-22.4,9.8-32.4c-0.6-1.3-1.2-2.6-1.3-4c-0.1-1.5-1.4-2.4-2.9-2.9
						c-1.3-0.4-0.9,0.2-0.4,0.7c1,1,0.2,2.4,2.9,4.2c0.7,0.4,0.9,1.1,1.3,2C141.4,76.5,131.5,87.9,120.2,91z"/>
				</g>
				<path style="fill:#24923C;stroke:#000000;stroke-width:0.125;" d="M135.2,62.3c-0.4-1.2-1.5-3.8-3.1-4.2
					c-1.6-0.4-3.1-1.2-3.9-3.4c-0.3-0.8-0.8-2.4,0.3-1.1c1.1,1.3,3.1,0.2,5.2,4.4c0.4,0.8,1.3,2.4,2,4.8"/>
				<path style="fill:#24923C;stroke:#000000;stroke-width:0.125;" d="M135.8,63.1c-1.1-3.8-3.2-3.2-4.3-4.6c-1-1.4-1.4-1.4-0.8,0.4
					c1.5,4.3,4.6,4.1,5.1,6.1"/>
				<path style="fill:#24923C;stroke:#000000;stroke-width:0.125;" d="M136.1,65.4c-1.1-3.9-3.8-3.4-4.9-5c-1.1-1.7-1.6-1.8-1.3,0.1
					c0.6,5.3,6,3.4,6.4,6.3"/>
				<path style="fill:#24923C;stroke:#000000;stroke-width:0.125;" d="M136.8,68.1c-0.4-4.2-3.9-3.7-4.9-4.8
					c-0.4-0.4-0.6,0.6,0.1,1.7c1.8,2.7,4,0.9,4.2,3.7"/>
				<path style="fill:#24923C;stroke:#000000;stroke-width:0.125;" d="M136.2,73.4c0.4-4.2,3.1-5.5,3.8-7.1c0.6-1.6,0.5,0.3,0.4,1.3
					c-0.8,5.6-3,3.7-3.6,6.8"/>
				<path style="fill:#24923C;stroke:#000000;stroke-width:0.125;" d="M136.6,74.8c0.6-2.9-0.5-5.2-2.2-6.4
					c-1.7-1.2-1.3-0.5-1.1,0.5c0.7,5,3.1,3,2.4,6.6"/>
				<path style="fill:#24923C;stroke:#000000;stroke-width:0.125;" d="M135.9,75.8c0.8-2.9,3-4.1,4.5-4.2c1.6-0.1,0.4,0.5,0.2,1.1
					c-1.4,3.3-3.8,1.9-4.7,4.4"/>
				<path style="fill:#24923C;stroke:#000000;stroke-width:0.125;" d="M132.8,82.4c1.4-2.1,1.2-3.6,2.6-4.9c1.5-1.3,2.6-1.4,3.4-2.2
					c0.8-0.8,0.8,0.2,0.1,1.6c-1.6,3.2-3.9,2.9-5.2,5.2"/>
				<path style="fill:#24923C;stroke:#000000;stroke-width:0.125;" d="M133.6,81.1c0.7-1.3,0.2-5.3-0.3-7.3c-0.5-2-0.1-2.4,0.8-1.3
					c1.2,1.3,2.8,3.3-0.3,8.5"/>
				<path style="fill:#24923C;stroke:#000000;stroke-width:0.125;" d="M132.9,82.6c3-3.7,5.2-2.2,6.7-3.1c1.5-0.9,0.7,0.5,0.3,0.9
					c-4.3,4.3-4.9,0.9-7.3,3.4"/>
				<path style="fill:#24923C;stroke:#000000;stroke-width:0.125;" d="M133.1,82.1c1.5-2.3,1.5-4.6,0.5-6.7
					c-0.9-1.9-1.2-1.4-1.1,0.1c0.1,1.4-1.1,2-0.3,4.7c0.3,0.9,0.4,2.7-0.7,3.9"/>
				<path style="fill:#24923C;stroke:#000000;stroke-width:0.125;" d="M129.6,86.4c1.2-1.4,2.3-2.8,4.2-3c1.9-0.2,2.5-0.5,1.6,0.7
					c-3.4,4.1-5.1,2.3-6.8,3.6"/>
				<path style="fill:#24923C;stroke:#000000;stroke-width:0.125;" d="M127.3,87.8c1.5-0.9,4.5-1.6,6.7-1.2c1.2,0.3,0.8,0.5,0,0.7
					c-1.6,0.5-2.1,2.1-5.6,1.8c-0.7-0.1-1.4-0.3-2.6,0.4"/>
				<path style="fill:#24923C;stroke:#000000;stroke-width:0.125;" d="M125.8,89c1.7-1.1,2.8-3.6,3.1-6.2c0.1-1.4-0.2-2.1-0.8-0.6
					c-0.8,1.8-2.1,1.8-2.9,4.6c-0.8,2.5-1.3,2.8-2.6,3.3"/>
				<path style="fill:#24923C;stroke:#000000;stroke-width:0.125;" d="M121.7,90.9c2.3-1.3,3.5-3.2,3.8-5.5c0.3-2.1-0.3-1.8-1-0.5
					c-0.7,1.2-2,1.1-2.8,3.7c-0.3,0.9-0.9,2.3-2.7,2.8"/>
				<path style="fill:#24923C;stroke:#000000;stroke-width:0.125;" d="M119.4,91.6c3.6-1.1,7-1,9,0.5c1,0.7,0.7,1-0.1,0.9
					c-2.4-0.4-3.4,1-6.4-0.3c-0.6-0.3-1.7-0.6-4.1,0.3"/>
			</g>
		</g>
		<g>
			<g>
				<path style="fill:none;stroke:#000000;stroke-width:0.125;stroke-linecap:round;" d="M100.8,51.8c-1.7,1.3-1.8,3.2-2.6,3.9"/>
				<path style="fill:none;stroke:#000000;stroke-width:0.125;stroke-linecap:round;" d="M98.1,57.6c1.4-1.6,3.1-1.6,3.8-3.1"/>
				<path style="fill:none;stroke:#000000;stroke-width:0.125;stroke-linecap:round;" d="M97.7,53.3c-0.7,0.7-0.3,2.3-0.6,2.9"/>
				<path style="fill:none;stroke:#000000;stroke-width:0.125;stroke-linecap:round;" d="M95.7,53.8c-0.7,1.8,0.6,3.6,0.2,5.3"/>
				<path style="fill:none;stroke:#000000;stroke-width:0.125;stroke-linecap:round;" d="M92.9,57.6c0.1,2.3,0.9,1.8,1.3,4.9"/>
				<path style="fill:none;stroke:#000000;stroke-width:0.125;stroke-linecap:round;" d="M99.4,58.8c-0.8,1.7-2.8,2-3.5,3.6"/>
				<path style="fill:none;stroke:#000000;stroke-width:0.125;stroke-linecap:round;" d="M96.2,64c1.3-1.3,3.3-1.6,4.1-3.7"/>
				<path style="fill:none;stroke:#000000;stroke-width:0.125;stroke-linecap:round;" d="M98.5,64.1c-0.9,1.2-2.4,0.9-3.2,2.3"/>
				<path style="fill:none;stroke:#000000;stroke-width:0.125;stroke-linecap:round;" d="M93.1,64.7c0.2,1.1,0,2.9,0.2,3.7"/>
				<path style="fill:none;stroke:#000000;stroke-width:0.125;stroke-linecap:round;" d="M91.8,63.1c0.1,0.6,0.4,1.2,0.6,1.6"/>
				<path style="fill:none;stroke:#000000;stroke-width:0.125;stroke-linecap:round;" d="M90.7,67c0.5,2.6,2.1,2.7,2.5,4.4"/>
				<path style="fill:none;stroke:#000000;stroke-width:0.125;stroke-linecap:round;" d="M96.8,69c-0.5,1.6-1.8,2.5-2.3,3.9"/>
				<path style="fill:none;stroke:#000000;stroke-width:0.125;stroke-linecap:round;" d="M90.3,72.2c1.4,0.5,1.9,1.7,3.3,2.5"/>
				<path style="fill:none;stroke:#000000;stroke-width:0.125;stroke-linecap:round;" d="M92,76c1,1.4,1.9,1.4,2.5,2.4"/>
				<path style="fill:none;stroke:#000000;stroke-width:0.125;stroke-linecap:round;" d="M96.8,73c-0.2,1.2-1.2,2.1-1.1,3.4"/>
				<path style="fill:none;stroke:#000000;stroke-width:0.125;stroke-linecap:round;" d="M97.7,75.1c-0.6,1.8,0.2,3.1-0.2,4.6"/>
				<path style="fill:none;stroke:#000000;stroke-width:0.125;stroke-linecap:round;" d="M91.1,79.9c1.3,1,3.4,0.9,4.2,1.7"/>
				<path style="fill:none;stroke:#000000;stroke-width:0.125;stroke-linecap:round;" d="M99.5,79.2c0.1,1.3-0.6,2.2-0.4,3.2"/>
				<path style="fill:none;stroke:#000000;stroke-width:0.125;stroke-linecap:round;" d="M95.7,83.7c1.4,0.6,3,2,3.8,2.3"/>
				<path style="fill:none;stroke:#000000;stroke-width:0.125;stroke-linecap:round;" d="M100.3,83c0.6,0.7,0.8,1.9,1.6,3"/>
				<path style="fill:none;stroke:#000000;stroke-width:0.125;stroke-linecap:round;" d="M102.2,82.5c0.3,1.9,1.6,2.8,2.3,4.9"/>
				<path style="fill:none;stroke:#000000;stroke-width:0.125;stroke-linecap:round;" d="M97.3,87c1.7,0.1,3.3,1.1,4.8,1.2"/>
				<path style="fill:none;stroke:#000000;stroke-width:0.125;stroke-linecap:round;" d="M99,89.7c1.4,0,3.3,0.7,4.7,0.6"/>
				<path style="fill:none;stroke:#000000;stroke-width:0.125;stroke-linecap:round;" d="M105.6,84.7c0.4,2.1,1.8,2.7,2.3,4.3"/>
				<path style="fill:none;stroke:#000000;stroke-width:0.125;stroke-linecap:round;" d="M109,85.8c0.2,1.9,1.5,2.9,2,4"/>
				<path style="fill:none;stroke:#000000;stroke-width:0.125;stroke-linecap:round;" d="M102.7,92.5c2.5-0.8,4.4-0.4,6-0.8"/>
				<path style="fill:none;stroke:#000000;stroke-width:0.125;stroke-linecap:round;" d="M104.3,95.1c3.2-0.4,3.8-2.2,5.5-2.3"/>
			</g>
			<g>
				<path style="fill:none;stroke:#000000;stroke-width:0.125;stroke-linecap:round;" d="M129.8,51.8c1.7,1.3,1.8,3.2,2.6,3.9"/>
				<path style="fill:none;stroke:#000000;stroke-width:0.125;stroke-linecap:round;" d="M132.5,57.6c-1.4-1.6-3.1-1.6-3.8-3.1"/>
				<path style="fill:none;stroke:#000000;stroke-width:0.125;stroke-linecap:round;" d="M132.9,53.3c0.7,0.7,0.2,2.3,0.6,2.9"/>
				<path style="fill:none;stroke:#000000;stroke-width:0.125;stroke-linecap:round;" d="M134.9,53.8c0.7,1.8-0.6,3.6-0.2,5.3"/>
				<path style="fill:none;stroke:#000000;stroke-width:0.125;stroke-linecap:round;" d="M137.8,57.6c-0.1,2.3-0.9,1.8-1.3,4.9"/>
				<path style="fill:none;stroke:#000000;stroke-width:0.125;stroke-linecap:round;" d="M131.2,58.8c0.8,1.7,2.8,2,3.5,3.6"/>
				<path style="fill:none;stroke:#000000;stroke-width:0.125;stroke-linecap:round;" d="M134.4,64c-1.3-1.3-3.3-1.6-4.1-3.7"/>
				<path style="fill:none;stroke:#000000;stroke-width:0.125;stroke-linecap:round;" d="M132.1,64.1c0.9,1.2,2.4,0.9,3.2,2.3"/>
				<path style="fill:none;stroke:#000000;stroke-width:0.125;stroke-linecap:round;" d="M137.5,64.7c-0.2,1.1,0,2.9-0.2,3.7"/>
				<path style="fill:none;stroke:#000000;stroke-width:0.125;stroke-linecap:round;" d="M138.8,63.1c-0.1,0.6-0.4,1.2-0.6,1.6"/>
				<path style="fill:none;stroke:#000000;stroke-width:0.125;stroke-linecap:round;" d="M139.9,67c-0.5,2.6-2.1,2.7-2.5,4.4"/>
				<path style="fill:none;stroke:#000000;stroke-width:0.125;stroke-linecap:round;" d="M133.8,69c0.5,1.6,1.8,2.5,2.3,3.9"/>
				<path style="fill:none;stroke:#000000;stroke-width:0.125;stroke-linecap:round;" d="M140.4,72.2c-1.4,0.5-1.9,1.7-3.3,2.5"/>
				<path style="fill:none;stroke:#000000;stroke-width:0.125;stroke-linecap:round;" d="M138.6,76c-1,1.4-1.9,1.4-2.5,2.4"/>
				<path style="fill:none;stroke:#000000;stroke-width:0.125;stroke-linecap:round;" d="M133.8,73c0.2,1.2,1.2,2.1,1.1,3.4"/>
				<path style="fill:none;stroke:#000000;stroke-width:0.125;stroke-linecap:round;" d="M132.9,75.1c0.6,1.8-0.2,3.1,0.2,4.6"/>
				<path style="fill:none;stroke:#000000;stroke-width:0.125;stroke-linecap:round;" d="M139.5,79.9c-1.3,1-3.4,0.9-4.2,1.7"/>
				<path style="fill:none;stroke:#000000;stroke-width:0.125;stroke-linecap:round;" d="M131.1,79.2c-0.1,1.3,0.6,2.2,0.4,3.2"/>
				<path style="fill:none;stroke:#000000;stroke-width:0.125;stroke-linecap:round;" d="M134.9,83.7c-1.4,0.6-3,2-3.8,2.3"/>
				<path style="fill:none;stroke:#000000;stroke-width:0.125;stroke-linecap:round;" d="M130.3,83c-0.6,0.7-0.8,1.9-1.6,3"/>
				<path style="fill:none;stroke:#000000;stroke-width:0.125;stroke-linecap:round;" d="M128.4,82.5c-0.3,1.9-1.6,2.8-2.3,4.9"/>
				<path style="fill:none;stroke:#000000;stroke-width:0.125;stroke-linecap:round;" d="M133.3,87c-1.7,0.1-3.3,1.1-4.8,1.2"/>
				<path style="fill:none;stroke:#000000;stroke-width:0.125;stroke-linecap:round;" d="M131.6,89.7c-1.4,0-3.3,0.7-4.7,0.6"/>
				<path style="fill:none;stroke:#000000;stroke-width:0.125;stroke-linecap:round;" d="M125,84.7c-0.4,2.1-1.8,2.7-2.3,4.3"/>
				<path style="fill:none;stroke:#000000;stroke-width:0.125;stroke-linecap:round;" d="M121.6,85.8c-0.2,1.9-1.5,2.9-2,4"/>
				<path style="fill:none;stroke:#000000;stroke-width:0.125;stroke-linecap:round;" d="M127.9,92.5c-2.5-0.8-4.4-0.4-6-0.8"/>
				<path style="fill:none;stroke:#000000;stroke-width:0.125;stroke-linecap:round;" d="M126.3,95.1c-3.2-0.4-3.8-2.2-5.5-2.3"/>
			</g>
		</g>
	</g>
	<g>
		<g>
			<path style="fill:#ED1B2E;" d="M136.7,64.3c0.8,0,0.8,1.1,0,1.1C135.9,65.4,135.9,64.3,136.7,64.3z"/>
			<path style="fill:#ED1B2E;" d="M133.7,58.6c0.8,0,0.8,1.1,0,1.1C132.9,59.7,132.9,58.6,133.7,58.6z"/>
			<path style="fill:#ED1B2E;" d="M136.9,68.8c0.8,0,0.8,1.1,0,1.1C136.1,69.9,136.1,68.8,136.9,68.8z"/>
			<path style="fill:#ED1B2E;" d="M132.6,82.3c0.8,0,0.8,1.1,0,1.1C131.9,83.4,131.9,82.3,132.6,82.3z"/>
			<path style="fill:#ED1B2E;" d="M121.3,89.8c0.8,0,0.8,1.1,0,1.1S120.5,89.8,121.3,89.8z"/>
		</g>
		<g>
			<path style="fill:#ED1B2E;" d="M94,64.3c-0.8,0-0.8,1.1,0,1.1C94.7,65.4,94.7,64.3,94,64.3z"/>
			<path style="fill:#ED1B2E;" d="M97,58.6c-0.8,0-0.8,1.1,0,1.1C97.7,59.7,97.7,58.6,97,58.6z"/>
			<path style="fill:#ED1B2E;" d="M93.7,68.8c-0.8,0-0.8,1.1,0,1.1S94.5,68.8,93.7,68.8z"/>
			<path style="fill:#ED1B2E;" d="M98,82.3c-0.8,0-0.8,1.1,0,1.1C98.7,83.4,98.7,82.3,98,82.3z"/>
			<path style="fill:#ED1B2E;" d="M109.4,89.8c-0.8,0-0.8,1.1,0,1.1C110.1,91,110.1,89.8,109.4,89.8z"/>
		</g>
	</g>
	<g>
		<path style="fill:none;stroke:#000000;stroke-width:0.125;stroke-linecap:round;stroke-linejoin:round;" d="M125.4,82.7
			c-0.3,0.2-1,0.3-1.3-0.4c-0.3-0.5-0.2-1.1,0.4-1.3l0.6,1.1c-0.2,0.3-0.5,0.3-0.7,0.3"/>
		<path style="fill:#C4B9B0;stroke:#000000;stroke-width:0.125;stroke-linecap:round;stroke-linejoin:round;" d="M127,82
			c0,0-0.5-0.5-0.6-0.6c-0.2-0.2-0.2-1,0.2-1.2c-0.5,0-0.9-0.4-0.8-1l-7.9-7.9c-0.1-0.1-0.2-0.1-0.3,0c-1.2-1.2-11.9-11.9-13.1-13.1
			l-0.6,0.6l12,12c-0.4,0.4-0.5,1.3,0.8,2.5c1.3,1.3,6.6,6.6,6.6,6.6l0.2-0.2c0.4,0.6,2.1,3.5,2.1,3.5L127,82z"/>
		<path style="fill:#C4B9B0;stroke:#000000;stroke-width:0.125;stroke-linecap:round;stroke-linejoin:round;" d="M108.4,62.7
			c-0.5,0.5-0.6,0.4-0.9,0.1c-0.4-0.4-0.3-0.5-0.3-0.6c0.1,0.1,0.3-0.1,0.4-0.2c0.1-0.1,0.3-0.3,0.2-0.4c0.1-0.1,0.2-0.1,0.6,0.3
			C108.8,62.1,108.9,62.3,108.4,62.7z"/>
		<path style="fill:#C4B9B0;stroke:#000000;stroke-width:0.125;stroke-linecap:round;stroke-linejoin:round;" d="M103.9,58.7
			l-1.2,1.2c0,0-7.4-7.4-8.2-8.2c-0.8-0.8-0.7-0.9,0.1-0.2c2.2,2,8.2,7.4,8.2,7.4s0.4-0.4,0.7-0.7L103.9,58.7z"/>
		<path style="fill:#C4B9B0;stroke:#000000;stroke-width:0.125;stroke-linecap:round;stroke-linejoin:round;" d="M104.3,57.9
			c-0.3-0.3-0.4-0.4-0.8,0c-0.4,0.4-0.3,0.5,0,0.8c0.3,0.3,0.4,0.4,0.8,0C104.7,58.3,104.6,58.2,104.3,57.9z"/>
		<path style="fill:#7B2D19;stroke:#000000;stroke-width:0.125;stroke-linecap:round;stroke-linejoin:round;" d="M125.7,83.3
			c0,0.3,0.2,0.6,0.6,1.3c0.4,0.7,2.1,3.7,3.7,6.5c0.1,0.2,0.6,0.2,1-0.2c0.4-0.3,1.3-1.1,1.8-1.5c0.6-0.6,0.9-0.9,0.4-1.4
			c-0.5-0.5-3.9-4.3-4.5-5c-0.9-1-1.1-0.6-1.8-1c-0.2-0.1-0.6,0.2-0.8,0.5C125.8,82.9,125.7,83.2,125.7,83.3z"/>
		<path style="fill:#7B2D19;stroke:#000000;stroke-width:0.125;stroke-linecap:round;stroke-linejoin:round;" d="M123.4,80
			c0,0-5.4-5.4-6.6-6.6c-1.3-1.3-1.2-2.1-0.8-2.5c0,0,0.4-0.4,0.4-0.4l8.3,8.3C124.3,78.8,123.7,80.3,123.4,80z"/>
	</g>
	<g>
		<path style="fill:none;stroke:#000000;stroke-width:0.125;stroke-linecap:round;stroke-linejoin:round;" d="M105.3,82.7
			c0.3,0.2,1,0.3,1.3-0.4c0.3-0.5,0.2-1.1-0.4-1.3l-0.6,1.1c0.2,0.3,0.5,0.3,0.7,0.3"/>
		<path style="fill:#C4B9B0;stroke:#000000;stroke-width:0.125;stroke-linecap:round;stroke-linejoin:round;" d="M103.7,82
			c0,0,0.5-0.5,0.6-0.6c0.2-0.2,0.2-1-0.2-1.2c0.5,0,0.9-0.4,0.8-1l7.9-7.9c0.1-0.1,0.2-0.1,0.3,0c1.2-1.2,11.9-11.9,13.1-13.1
			l0.6,0.6l-12,12c0.4,0.4,0.5,1.3-0.8,2.5c-1.3,1.3-6.6,6.6-6.6,6.6l-0.2-0.2c-0.4,0.6-2.1,3.5-2.1,3.5L103.7,82z"/>
		<path style="fill:#C4B9B0;stroke:#000000;stroke-width:0.125;stroke-linecap:round;stroke-linejoin:round;" d="M122.2,62.7
			c0.5,0.5,0.6,0.4,0.9,0.1c0.4-0.4,0.3-0.5,0.3-0.6c-0.1,0.1-0.3-0.1-0.4-0.2c-0.1-0.1-0.3-0.3-0.2-0.4c-0.1-0.1-0.2-0.1-0.6,0.3
			C121.8,62.1,121.7,62.3,122.2,62.7z"/>
		<path style="fill:#C4B9B0;stroke:#000000;stroke-width:0.125;stroke-linecap:round;stroke-linejoin:round;" d="M126.7,58.7
			l1.2,1.2c0,0,7.4-7.4,8.2-8.2c0.8-0.8,0.7-0.9-0.1-0.2c-2.2,2-8.2,7.4-8.2,7.4s-0.4-0.4-0.7-0.7L126.7,58.7z"/>
		<path style="fill:#C4B9B0;stroke:#000000;stroke-width:0.125;stroke-linecap:round;stroke-linejoin:round;" d="M126.3,57.9
			c0.3-0.3,0.4-0.4,0.8,0s0.3,0.5,0,0.8c-0.3,0.3-0.4,0.4-0.8,0C125.9,58.3,126,58.2,126.3,57.9z"/>
		<path style="fill:#7B2D19;stroke:#000000;stroke-width:0.125;stroke-linecap:round;stroke-linejoin:round;" d="M104.9,83.3
			c0,0.3-0.2,0.6-0.6,1.3c-0.4,0.7-2.1,3.7-3.7,6.5c-0.1,0.2-0.6,0.2-1-0.2c-0.4-0.3-1.3-1.1-1.8-1.5c-0.6-0.6-0.9-0.9-0.4-1.4
			c0.5-0.5,3.9-4.3,4.5-5c0.9-1,1.1-0.6,1.8-1c0.2-0.1,0.6,0.2,0.8,0.5C104.8,82.9,104.9,83.2,104.9,83.3z"/>
		<path style="fill:#7B2D19;stroke:#000000;stroke-width:0.125;stroke-linecap:round;stroke-linejoin:round;" d="M107.3,80
			c0,0,5.4-5.4,6.6-6.6c1.3-1.3,1.2-2.1,0.8-2.5c0,0-0.4-0.4-0.4-0.4l-8.3,8.3C106.3,78.8,106.9,80.3,107.3,80z"/>
	</g>
	<g>
		<path style="fill:#C4B9B0;stroke:#000000;stroke-width:0.125;stroke-linecap:round;stroke-linejoin:round;" d="M108.6,87.4
			c6.4-6.8,14.9-14.2,22-18c-8.1,2.8-16.1,10.5-22.4,17.6L108.6,87.4z"/>
		<path style="fill:#FFCF46;stroke:#000000;stroke-width:0.125;stroke-linecap:round;stroke-linejoin:round;" d="M108.4,87.6
			c-0.3,0.3-2.2,2.2-2.7,2.7c0,0.1-0.3,0.2-0.5,0c-0.2-0.1-0.1-0.4,0.1-0.5c-0.4-0.1-0.7-0.4-0.7-0.7c-0.2-0.9,0.1-1.5,0.7-2.1
			c0.9-0.9,2.1-0.9,2.6-0.5c0.5,0.4,0.8,0.6,1.4,0.7c0.6,0.1,0.5,0.6,0.1,0.7c-0.4,0-0.8-0.2-1.4-0.8c-0.5-0.6-1.1-0.6-1.6-0.4
			c-0.7,0.3-1.2,0.9-1.4,1.3c-0.2,0.3-0.2,0.9,0,1.2c0.3,0.3,0.5,0.4,0.8,0.1c0.3-0.3,1.5-1.4,2.2-2.1
			C108.1,87.4,108.3,87.6,108.4,87.6z"/>
		<path style="fill:#FFCF46;stroke:#000000;stroke-width:0.125;stroke-linecap:round;stroke-linejoin:round;" d="M108,87.3
			c-0.2,0-0.3,0.1-0.4,0.1c-0.2,0.1-0.2,0.4-0.2,0.7c0,0.1,0,0.3,0,0.4c0.2,0,0.3-0.1,0.4-0.1c0.2-0.1,0.2-0.4,0.2-0.7
			C108,87.5,108,87.4,108,87.3z"/>
		<path style="fill:#FFCF46;stroke:#000000;stroke-width:0.125;stroke-linecap:round;stroke-linejoin:round;" d="M107.5,87.8
			c-0.2,0-0.3,0.1-0.4,0.1c-0.2,0.1-0.2,0.4-0.2,0.7c0,0.1,0,0.3,0,0.4c0.2,0,0.3-0.1,0.4-0.1c0.2-0.1,0.2-0.4,0.2-0.7
			C107.5,88.1,107.5,87.9,107.5,87.8z"/>
		<path style="fill:#FFCF46;stroke:#000000;stroke-width:0.125;stroke-linecap:round;stroke-linejoin:round;" d="M106.9,88.4
			c-0.2,0-0.3,0.1-0.4,0.1c-0.2,0.1-0.2,0.4-0.2,0.7c0,0.1,0,0.3,0,0.4c0.2,0,0.3-0.1,0.4-0.1c0.2-0.1,0.2-0.4,0.2-0.7
			C106.9,88.6,106.9,88.5,106.9,88.4z"/>
		<path style="fill:#FFCF46;stroke:#000000;stroke-width:0.125;stroke-linecap:round;stroke-linejoin:round;" d="M106.4,88.9
			c-0.2,0-0.3,0.1-0.4,0.1c-0.2,0.1-0.2,0.4-0.2,0.7c0,0.1,0,0.3,0,0.4c0.2,0,0.3-0.1,0.4-0.1c0.2-0.1,0.2-0.4,0.2-0.7
			C106.4,89.1,106.4,89,106.4,88.9z"/>
		<path style="fill:none;stroke:#000000;stroke-width:6.300000e-02;stroke-linecap:round;stroke-linejoin:round;" d="M108.7,86.8
			c5.8-6.3,14.9-14.3,20.8-16.9"/>
	</g>
	<g>
		<path style="fill:#C4B9B0;stroke:#000000;stroke-width:0.125;stroke-linecap:round;stroke-linejoin:round;" d="M122,87.4
			c-6.4-6.8-14.9-14.2-22-18c8.1,2.8,16.1,10.5,22.4,17.6L122,87.4z"/>
		<path style="fill:#FFCF46;stroke:#000000;stroke-width:0.125;stroke-linecap:round;stroke-linejoin:round;" d="M122.3,87.6
			c0.3,0.3,2.2,2.2,2.7,2.7c0,0.1,0.3,0.2,0.5,0c0.2-0.1,0.1-0.4-0.1-0.5c0.4-0.1,0.7-0.4,0.7-0.7c0.2-0.9-0.1-1.5-0.7-2.1
			c-0.9-0.9-2.1-0.9-2.6-0.5c-0.5,0.4-0.8,0.6-1.4,0.7c-0.6,0.1-0.5,0.6-0.1,0.7c0.4,0,0.8-0.2,1.4-0.8c0.5-0.6,1.1-0.6,1.6-0.4
			c0.7,0.3,1.2,0.9,1.4,1.3c0.2,0.3,0.2,0.9,0,1.2c-0.3,0.3-0.5,0.4-0.8,0.1c-0.3-0.3-1.5-1.4-2.2-2.1
			C122.5,87.4,122.3,87.6,122.3,87.6z"/>
		<path style="fill:#FFCF46;stroke:#000000;stroke-width:0.125;stroke-linecap:round;stroke-linejoin:round;" d="M122.6,87.3
			c0.2,0,0.3,0.1,0.4,0.1c0.2,0.1,0.2,0.4,0.2,0.7c0,0.1,0,0.3,0,0.4c-0.2,0-0.3-0.1-0.4-0.1c-0.2-0.1-0.2-0.4-0.2-0.7
			C122.6,87.5,122.6,87.4,122.6,87.3z"/>
		<path style="fill:#FFCF46;stroke:#000000;stroke-width:0.125;stroke-linecap:round;stroke-linejoin:round;" d="M123.1,87.8
			c0.2,0,0.3,0.1,0.4,0.1c0.2,0.1,0.2,0.4,0.2,0.7c0,0.1,0,0.3,0,0.4c-0.2,0-0.3-0.1-0.4-0.1c-0.2-0.1-0.2-0.4-0.2-0.7
			C123.2,88.1,123.1,87.9,123.1,87.8z"/>
		<path style="fill:#FFCF46;stroke:#000000;stroke-width:0.125;stroke-linecap:round;stroke-linejoin:round;" d="M123.7,88.4
			c0.2,0,0.3,0.1,0.4,0.1c0.2,0.1,0.2,0.4,0.2,0.7c0,0.1,0,0.3,0,0.4c-0.2,0-0.3-0.1-0.4-0.1c-0.2-0.1-0.2-0.4-0.2-0.7
			C123.7,88.6,123.7,88.5,123.7,88.4z"/>
		<path style="fill:#FFCF46;stroke:#000000;stroke-width:0.125;stroke-linecap:round;stroke-linejoin:round;" d="M124.2,88.9
			c0.2,0,0.3,0.1,0.4,0.1c0.2,0.1,0.2,0.4,0.2,0.7c0,0.1,0,0.3,0,0.4c-0.2,0-0.3-0.1-0.4-0.1c-0.2-0.1-0.2-0.4-0.2-0.7
			C124.2,89.1,124.2,89,124.2,88.9z"/>
		<path style="fill:none;stroke:#000000;stroke-width:6.300000e-02;stroke-linecap:round;stroke-linejoin:round;" d="M121.9,86.8
			c-5.8-6.3-14.9-14.3-20.8-16.9"/>
	</g>
	<g>
		<path style="fill:#ED1B2E;stroke:#000000;stroke-width:0.125;stroke-linecap:round;stroke-linejoin:round;" d="M113.7,54
			c0.5,1.8,1.3,4.4,6.4,4.3C119.8,56.2,116.7,53,113.7,54z"/>
		<path style="fill:#ED1B2E;stroke:#000000;stroke-width:0.125;stroke-linecap:round;stroke-linejoin:round;" d="M113.8,51.5
			c-0.3,0-0.8-0.1-1.1-0.4c0.2,0,1,0,1.2,0L113.8,51.5z"/>
		<path style="fill:#ED1B2E;stroke:#000000;stroke-width:0.125;stroke-linecap:round;stroke-linejoin:round;" d="M113.5,50.5
			c-0.1,0.1-0.6,0.4-0.8,0.5c-0.1,0.1-0.3,0.2,0.1,0.2c0.4,0,0.9,0,1.1,0L113.5,50.5z"/>
		<path style="fill:#24923C;stroke:#000000;stroke-width:0.125;stroke-linecap:round;stroke-linejoin:round;" d="M117.5,51.3
			c-0.9-0.6,0.5-3.2-1.7-3.6c-1-0.2-2,0.2-2.4,0.9c-0.2,0.4-0.5,1.2,0,1.9c0.5,0.8,0.3,0.9,0.2,1.2c-0.7,1.3-0.4,2.6,1.5,3.2
			C117,55.6,118.1,51.7,117.5,51.3z"/>
		<path style="fill:#24923C;stroke:#000000;stroke-width:0.125;stroke-linecap:round;stroke-linejoin:round;" d="M115.3,51.8
			c-1.1,1.8-1.3,4.3,2.7,4.6c0.4,0.6,0.8,1.9,0.7,2.5c0.2-0.2,0.5-0.6,0.5-1.1c0.2,0.3,0.2,0.8,0.1,1.1c0.2-0.2,0.5-0.5,0.5-0.8
			c0.1,0.4,0.2,1,0.1,1.3c0.3-0.3,0.5-0.8,0.6-1.2c0.2,0.5,0.3,1.2,0.2,1.6c0.2-0.2,0.3-0.6,0.4-0.9c-0.1,0.5,0,1.3-0.4,1.9
			c0.5-0.4,1.2-1.2,1.4-2.2c0.2,0.4,0.5,1.3,0.5,2c0.2-0.3,0.3-0.8,0.4-1.1c6.3,7.2,4.7,14.2,0,20.6c0.4-0.4,1.1-0.7,1.5-1.3
			c-0.1,0.2-0.5,0.7-0.7,0.9c0.6-0.2,1-0.6,1.3-1c-0.2,0.4-0.5,0.9-0.7,1.1c0.4-0.1,0.8-0.4,1-0.6c-2.9,6.2-8.7,10.8-12.5,13.1
			c3-0.6,6.3-2.9,8.1-4.4c-1.6,2.5-3.1,5.8-3.6,8.8c1.4-3,3.6-7.1,6.6-10.2c3.3-3.4,5.9-8.5,5.9-16c0-6.9-4.8-12.7-7.4-15.3
			c-2.6-2.6-3.1-2.2-4.7-3.9C116.5,50,115.5,51.6,115.3,51.8z"/>
		<path style="fill:#FFF200;" d="M114.4,49.3c-0.4,0-0.4,0.5,0,0.5C114.7,49.8,114.7,49.3,114.4,49.3z"/>
		<path style="fill:none;stroke:#000000;stroke-width:6.300000e-02;stroke-linecap:round;stroke-linejoin:round;" d="M125.5,79.2
			c2.7-5.2,5.1-11.9-1.8-20.3"/>
		<path style="fill:none;stroke:#000000;stroke-width:6.300000e-02;stroke-linecap:round;stroke-linejoin:round;" d="M125.2,78.7
			c0.7-1,1.6-2.6,2.3-5.5"/>
		<path style="fill:none;stroke:#000000;stroke-width:6.300000e-02;stroke-linecap:round;stroke-linejoin:round;" d="M124.5,78.8
			c2.1-3,4.7-8.1,2.2-14.4"/>
		<path style="fill:none;stroke:#000000;stroke-width:6.300000e-02;stroke-linecap:round;stroke-linejoin:round;" d="M121,87.9
			c3.7-3.1,8-10.5,8-16.5c0-5.1-1.3-9-5.2-13.4"/>
		<path style="fill:none;stroke:#000000;stroke-width:6.300000e-02;stroke-linecap:round;stroke-linejoin:round;" d="M116.9,90.2
			c3.3-2.2,7.8-6.4,10-12.2"/>
		<path style="fill:none;stroke:#000000;stroke-width:6.300000e-02;stroke-linecap:round;stroke-linejoin:round;" d="M120,91.1
			c1.5-2.6,3.5-4.8,4.6-5.9c1.1-1.1,3.6-5.8,4.1-8.6"/>
		<path style="fill:none;stroke:#000000;stroke-width:6.300000e-02;stroke-linecap:round;stroke-linejoin:round;" d="M120.5,58.2
			c0-0.6-0.1-1.5-0.3-2"/>
		<path style="fill:none;stroke:#000000;stroke-width:6.300000e-02;stroke-linecap:round;stroke-linejoin:round;" d="M119.8,58.1
			c0.1-0.4,0-1-0.1-1.3"/>
		<path style="fill:none;stroke:#000000;stroke-width:6.300000e-02;stroke-linecap:round;stroke-linejoin:round;" d="M121.1,59
			c0.1-0.4,0.2-1.2,0.2-1.4"/>
		<path style="fill:none;stroke:#000000;stroke-width:6.300000e-02;stroke-linecap:round;stroke-linejoin:round;" d="M122.1,58.6
			c0.1-0.4,0.2-1.3,0.1-1.8"/>
		<path style="fill:none;stroke:#000000;stroke-width:6.300000e-02;stroke-linecap:round;stroke-linejoin:round;" d="M123,59.6
			c-0.2-0.3-0.5-0.7-0.7-0.8"/>
		<path style="fill:none;stroke:#000000;stroke-width:6.300000e-02;stroke-linecap:round;stroke-linejoin:round;" d="M119.2,57.8
			c0-0.5-0.1-1.3-0.4-1.8"/>
	</g>
	<g>
		<path style="fill:#FFFCD5;stroke:#000000;stroke-width:0.125;" d="M119.4,57.9c-2.6,0.2-7,0-10.4-0.7c-1.9-0.4-3.8,1.9-2.8,5
			c1.5,4.7,3.5,6.8,5.4,10.3c-2.3-0.8-4.3,0.3-4.2,2c0.1,2,1.2,3.2,3.9,2.8c2.6-0.4,8.6-0.9,11.8-0.5c1.1,0.1,1.9-0.9,2.1-1.5
			c0.9-3.7,0.4-7.2-4.8-14c1,0,1.4-1,1.3-2C121.4,58.7,121.2,57.8,119.4,57.9z"/>
		<g>
			<path d="M109,57.2c-1.9-0.4-3.8,1.9-2.8,5c1.5,4.7,3.5,6.8,5.4,10.3c-2.3-0.8-4.3,0.3-4.2,2c0.1,2,1.2,3.2,3.9,2.8
				c-1,0.2-2.3-0.2-2.7-1.1c0.3,0.5,1.2,0.6,1.7,0.6c0.6,0,2.1-0.4,2.5-1.9c0.4-1.9-0.4-2.9-2.8-6.6c-1.4-2.3-3.1-5.8-3.2-7.7
				c0-1.8,0.9-2.7,1.8-2.3c-1-0.1-1.3,1.1-1.3,1.8c0,0.7,0.8,1.8,2.1,1.7c3.2-0.4,9-0.6,10.9-0.4c-3.3-0.3-7.8-0.2-9.5,0
				c-1.7,0.2-2.9,0.1-3-1.2c0.6,0.8,2.1,0.9,2.5-0.7C110.5,58.1,109.7,57.3,109,57.2z"/>
			<path d="M110.5,60.9c2.4-0.2,7.6-0.1,9.8,0C118.6,60.7,111.3,60.5,110.5,60.9z"/>
			<path d="M111.2,60.6c2.1-0.2,6.4-0.1,8.3,0C118.1,60.5,111.9,60.2,111.2,60.6z"/>
			<path d="M111.8,60.3c1.8-0.2,5.5-0.1,7,0C117.6,60.2,112.4,59.9,111.8,60.3z"/>
			<path d="M112.2,76.6c2.8-0.4,9.5-0.5,11.6-0.2C121.4,75.9,114,76,112.2,76.6z"/>
			<path d="M113,76.3c2.4-0.4,8.1-0.5,9.8-0.2C120.9,75.6,114.6,75.7,113,76.3z"/>
			<path d="M113.7,75.9c2-0.4,6.9-0.5,8.3-0.2C120.4,75.2,115,75.4,113.7,75.9z"/>
		</g>
		<g>
			<path style="fill:#FFFCD5;" d="M109.5,58.6c0.4,0.8,0.1,1.3-0.4,1.6c0.3-0.5-0.1-1.3-0.6-1.7C108.9,58.5,109.3,58.5,109.5,58.6z"
				/>
			<path style="fill:#FFFCD5;" d="M108.1,59.8v-0.6c0.3,0,0.6,0.3,0.6,0.6H108.1z"/>
			<path style="fill:#FFFCD5;" d="M111.8,72.9l-1-0.3c1,0.3,1.2,2.5,0.5,3.4C111.9,75.3,112.1,74,111.8,72.9z"/>
			<path style="fill:#FFFCD5;" d="M110.9,73.5c-0.3-0.9-1.1-0.8-1.9-0.5c-1,0.4-1.7,1.6-0.7,3.1c-0.2-0.6,0-1.5,0.1-1.8
				C108.6,74.1,109,73.2,110.9,73.5z"/>
			<path style="fill:#FFFCD5;" d="M110.9,75.4c0.2-0.5,0.2-1.1,0.1-1.6c-1.5,0-2.1,0.1-2.3,0.7c0.8-0.6,1.6-0.1,1.6,0.4
				C110.3,75.4,110.3,75.5,110.9,75.4z"/>
			<path style="fill:#FFFCD5;" d="M110.8,75.7c-0.7,0.4-1.8,0.2-1.4-1c0.3,0,0.6-0.1,0.6,0.4C110.1,75.4,110.1,75.7,110.8,75.7z"/>
		</g>
	</g>
	<g>
		<path style="fill:#24923C;stroke:#000000;stroke-width:0.125;" d="M105.9,90.1c-1.7-0.8-4.7-1.9-6.5-1.3c-1.8,0.6-2.1,0.8-0.7,1.5
			c4.8,2.4,6.6,0.1,8.7,0.6"/>
		<path style="fill:#24923C;stroke:#000000;stroke-width:0.125;stroke-linecap:round;" d="M99,89.7c1.4,0,3.3,0.7,4.7,0.6"/>
		<path style="fill:#24923C;stroke:#000000;stroke-width:0.125;" d="M124.7,90.1c1.7-0.8,4.7-1.9,6.5-1.3c1.8,0.6,2.1,0.8,0.7,1.5
			c-4.8,2.4-6.6,0.1-8.7,0.6"/>
		<path style="fill:#24923C;stroke:#000000;stroke-width:0.125;stroke-linecap:round;" d="M131.6,89.7c-1.4,0-3.3,0.7-4.7,0.6"/>
	</g>
	<g>
		<polyline style="fill:none;stroke:#FFCF46;stroke-width:0.25;stroke-linecap:round;stroke-linejoin:round;" points="123.1,68.6
			122.6,68.6 122.6,69.7 123.1,69.6 		"/>

			<line style="fill:none;stroke:#FFCF46;stroke-width:0.25;stroke-linecap:round;stroke-linejoin:round;" x1="122.6" y1="69.2" x2="123" y2="69.1"/>
		<g>
			<polyline style="fill:none;stroke:#FFCF46;stroke-width:0.25;stroke-linecap:round;stroke-linejoin:round;" points="110.6,63.7
				110.6,64.7 111.1,64.7 			"/>
		</g>
		<g>

				<line style="fill:none;stroke:#FFCF46;stroke-width:0.25;stroke-linecap:round;stroke-linejoin:round;" x1="112" y1="63.6" x2="112" y2="64.6"/>
		</g>
		<g>
			<polyline style="fill:none;stroke:#FFCF46;stroke-width:0.25;stroke-linecap:round;stroke-linejoin:round;" points="115,63.5
				114.5,63.5 114.5,64.5 115,64.5 			"/>

				<line style="fill:none;stroke:#FFCF46;stroke-width:0.25;stroke-linecap:round;stroke-linejoin:round;" x1="114.5" y1="64" x2="114.9" y2="64"/>
		</g>
		<g>

				<line style="fill:none;stroke:#FFCF46;stroke-width:0.25;stroke-linecap:round;stroke-linejoin:round;" x1="117.4" y1="63.4" x2="117.4" y2="64.4"/>

				<line style="fill:none;stroke:#FFCF46;stroke-width:0.25;stroke-linecap:round;stroke-linejoin:round;" x1="117.1" y1="63.4" x2="117.8" y2="63.4"/>
		</g>
		<g>
			<path style="fill:none;stroke:#FFCF46;stroke-width:0.25;stroke-linecap:round;stroke-linejoin:round;" d="M113.1,63.6l0.3,0
				c0.1,0,0.2,0.1,0.2,0.2c0,0.1-0.1,0.3-0.2,0.3c-0.1,0-0.3,0-0.4,0"/>
			<path style="fill:none;stroke:#FFCF46;stroke-width:0.25;stroke-linecap:round;stroke-linejoin:round;" d="M113.1,64.6l0.3,0
				c0.1,0,0.2-0.1,0.2-0.3c0-0.1-0.1-0.2-0.2-0.2c-0.1,0-0.3,0-0.4,0"/>

				<line style="fill:none;stroke:#FFCF46;stroke-width:0.25;stroke-linecap:round;stroke-linejoin:round;" x1="113.1" y1="63.6" x2="113.1" y2="64.6"/>
		</g>
		<g>
			<path style="fill:none;stroke:#FFCF46;stroke-width:0.25;stroke-linecap:round;stroke-linejoin:round;" d="M115.8,63.5l0.3,0
				c0.1,0,0.2,0.1,0.2,0.2c0,0.1-0.1,0.3-0.2,0.3c-0.1,0-0.3,0-0.4,0c0.2,0,0.3,0,0.4,0.1c0.1,0.1,0,0.3,0.1,0.4"/>

				<line style="fill:none;stroke:#FFCF46;stroke-width:0.25;stroke-linecap:round;stroke-linejoin:round;" x1="115.8" y1="63.5" x2="115.8" y2="64.5"/>
		</g>
		<g>
			<polyline style="fill:none;stroke:#FFCF46;stroke-width:0.25;stroke-linecap:round;stroke-linejoin:round;" points="118.3,64.4
				118.7,63.4 119,64.4 			"/>

				<line style="fill:none;stroke:#FFCF46;stroke-width:0.25;stroke-linecap:round;stroke-linejoin:round;" x1="118.5" y1="64" x2="118.9" y2="64"/>
		</g>
		<g>
			<path style="fill:none;stroke:#FFCF46;stroke-width:0.25;stroke-linecap:round;stroke-linejoin:round;" d="M120,64.3v-1
				c0.1,0,0.2,0,0.3,0c0.1,0,0.3,0.1,0.3,0.5c0,0.4-0.2,0.5-0.3,0.5C120.1,64.3,120,64.3,120,64.3z"/>
		</g>
		<g>
			<polyline style="fill:none;stroke:#FFCF46;stroke-width:0.25;stroke-linecap:round;stroke-linejoin:round;" points="114.3,67.2
				114.3,66.2 114.1,66.2 			"/>
		</g>
		<path style="fill:none;stroke:#FFCF46;stroke-width:0.25;stroke-linecap:round;stroke-linejoin:round;" d="M115.5,66.2l-0.5,0v0.5
			c0.3-0.2,0.6-0.1,0.6,0.2c0,0.2-0.4,0.4-0.6,0.2"/>
		<g>
			<path style="fill:none;stroke:#FFCF46;stroke-width:0.25;stroke-linecap:round;stroke-linejoin:round;" d="M117.4,67.1v-1
				c0.1,0,0.2,0,0.3,0c0.1,0,0.3,0.1,0.3,0.5c0,0.4-0.2,0.5-0.3,0.5S117.4,67.1,117.4,67.1z"/>
		</g>
		<g>
			<polyline style="fill:none;stroke:#FFCF46;stroke-width:0.25;stroke-linecap:round;stroke-linejoin:round;" points="119.2,66
				118.7,66 118.7,67 119.2,67 			"/>

				<line style="fill:none;stroke:#FFCF46;stroke-width:0.25;stroke-linecap:round;stroke-linejoin:round;" x1="118.7" y1="66.5" x2="119.1" y2="66.5"/>
		</g>
		<g>
			<polyline style="fill:none;stroke:#FFCF46;stroke-width:0.25;stroke-linecap:round;stroke-linejoin:round;" points="114.6,69
				114.1,69 114.1,70 114.6,70 			"/>

				<line style="fill:none;stroke:#FFCF46;stroke-width:0.25;stroke-linecap:round;stroke-linejoin:round;" x1="114.1" y1="69.5" x2="114.5" y2="69.5"/>
		</g>
		<g>

				<line style="fill:none;stroke:#FFCF46;stroke-width:0.25;stroke-linecap:round;stroke-linejoin:round;" x1="115.5" y1="68.9" x2="115.5" y2="69.9"/>

				<line style="fill:none;stroke:#FFCF46;stroke-width:0.25;stroke-linecap:round;stroke-linejoin:round;" x1="115.2" y1="68.9" x2="115.9" y2="68.9"/>
		</g>
		<g>

				<line style="fill:none;stroke:#FFCF46;stroke-width:0.25;stroke-linecap:round;stroke-linejoin:round;" x1="116.6" y1="68.9" x2="116.6" y2="69.9"/>
		</g>
		<g>
			<polyline style="fill:none;stroke:#FFCF46;stroke-width:0.25;stroke-linecap:round;stroke-linejoin:round;" points="118,68.8
				117.4,68.8 117.4,69.8 118,69.8 			"/>

				<line style="fill:none;stroke:#FFCF46;stroke-width:0.25;stroke-linecap:round;stroke-linejoin:round;" x1="117.4" y1="69.3" x2="117.8" y2="69.3"/>
		</g>
		<g>
			<path style="fill:none;stroke:#FFCF46;stroke-width:0.25;stroke-linecap:round;stroke-linejoin:round;" d="M120.3,68.7l0.3,0
				c0.1,0,0.2,0.1,0.2,0.2c0,0.1-0.1,0.3-0.2,0.3c-0.1,0-0.3,0-0.4,0"/>
			<path style="fill:none;stroke:#FFCF46;stroke-width:0.25;stroke-linecap:round;stroke-linejoin:round;" d="M120.3,69.7l0.3,0
				c0.1,0,0.2-0.1,0.2-0.3s-0.1-0.2-0.2-0.2c-0.1,0-0.3,0-0.4,0"/>

				<line style="fill:none;stroke:#FFCF46;stroke-width:0.25;stroke-linecap:round;stroke-linejoin:round;" x1="120.3" y1="68.7" x2="120.3" y2="69.7"/>
		</g>
		<g>
			<path style="fill:none;stroke:#FFCF46;stroke-width:0.25;stroke-linecap:round;stroke-linejoin:round;" d="M115.1,72.5v-1
				c0.1,0,0.2,0,0.3,0c0.1,0,0.3,0.1,0.3,0.5c0,0.4-0.2,0.5-0.3,0.5C115.3,72.5,115.2,72.5,115.1,72.5z"/>
		</g>
		<g>
			<polyline style="fill:none;stroke:#FFCF46;stroke-width:0.25;stroke-linecap:round;stroke-linejoin:round;" points="116.7,71.4
				116.2,71.4 116.2,72.5 116.7,72.4 			"/>

				<line style="fill:none;stroke:#FFCF46;stroke-width:0.25;stroke-linecap:round;stroke-linejoin:round;" x1="116.2" y1="72" x2="116.6" y2="71.9"/>
		</g>
		<g>
			<polyline style="fill:none;stroke:#FFCF46;stroke-width:0.25;stroke-linecap:round;stroke-linejoin:round;" points="118.5,72.4
				118.5,71.4 118.3,71.4 			"/>
		</g>
		<g>
			<path style="fill:none;stroke:#FFCF46;stroke-width:0.25;stroke-linecap:round;stroke-linejoin:round;" d="M113.3,69.1
				c-0.1-0.2-0.4-0.2-0.5,0.1c-0.1,0.2,0.1,0.2,0.3,0.3c0.2,0,0.3,0.2,0.2,0.4c-0.1,0.2-0.4,0.2-0.5,0"/>
		</g>
		<g>
			<polyline style="fill:none;stroke:#FFCF46;stroke-width:0.25;stroke-linecap:round;stroke-linejoin:round;" points="119.7,69.8
				119.5,68.8 119.1,69.3 118.8,68.8 118.6,69.8 			"/>
		</g>
		<g>
			<path style="fill:none;stroke:#FFCF46;stroke-width:0.25;stroke-linecap:round;stroke-linejoin:round;" d="M119.5,71.3
				c-0.3,0-0.4,0.5,0,0.5C119.9,71.8,119.9,71.3,119.5,71.3z"/>
			<path style="fill:none;stroke:#FFCF46;stroke-width:0.25;stroke-linecap:round;stroke-linejoin:round;" d="M119.5,71.8
				c-0.4,0-0.4,0.6,0,0.5C119.9,72.3,119.9,71.8,119.5,71.8z"/>
		</g>
		<g>
			<polyline style="fill:none;stroke:#FFCF46;stroke-width:0.25;stroke-linecap:round;stroke-linejoin:round;" points="121.8,72.2
				121.8,71.2 121.6,71.2 			"/>
		</g>
		<g>
			<path style="fill:none;stroke:#FFCF46;stroke-width:0.25;stroke-linecap:round;stroke-linejoin:round;" d="M120.5,71.4
				c0.2-0.1,0.4-0.1,0.5,0.1c0.1,0.2,0,0.4-0.1,0.4c-0.2,0.1-0.4,0.2-0.4,0.4l0.5,0"/>
		</g>
		<g>
			<path style="fill:none;stroke:#FFCF46;stroke-width:0.25;stroke-linecap:round;stroke-linejoin:round;" d="M121.5,68.7l0.3,0
				c0.1,0,0.2,0.1,0.2,0.2c0,0.1-0.1,0.3-0.2,0.3c-0.1,0-0.3,0-0.4,0c0.2,0,0.3,0,0.4,0.1c0.1,0.1,0,0.3,0.1,0.4"/>

				<line style="fill:none;stroke:#FFCF46;stroke-width:0.25;stroke-linecap:round;stroke-linejoin:round;" x1="121.5" y1="68.7" x2="121.5" y2="69.7"/>
		</g>
	</g>
</g>
</svg>
