<svg version="1.1" xmlns="http://www.w3.org/2000/svg" viewBox="0 0 65.68 32">
	<path style="fill:none;stroke:#000000;stroke-width:2;stroke-linecap:round;stroke-linejoin:round;stroke-miterlimit:10;" d="
		M58.53,28.805c0,1.212-0.983,2.195-2.195,2.195H3.195C1.983,31,1,30.017,1,28.805V3.195C1,1.983,1.983,1,3.195,1h53.139
		c1.212,0,2.195,0.983,2.195,2.195v3.293h3.955c1.212,0,2.195,0.983,2.195,2.195v14.634c0,1.212-0.983,2.195-2.195,2.195H58.53
		V28.805z"/>
	<g>
		<path style="fill:#1097AF;stroke:#000000;stroke-width:2;stroke-miterlimit:10;" d="M18.757,27.3H6.716
			c-0.404,0-0.732-0.328-0.732-0.732V5.432c0-0.404,0.328-0.732,0.732-0.732h12.041c0.404,0,0.732,0.328,0.732,0.732v21.136
			C19.489,26.972,19.161,27.3,18.757,27.3z"/>
	</g>
	<g>
		<path style="fill:#1097AF;stroke:#000000;stroke-width:2;stroke-miterlimit:10;" d="M36.357,27.3H24.316
			c-0.404,0-0.732-0.328-0.732-0.732V5.432c0-0.404,0.328-0.732,0.732-0.732h12.041c0.404,0,0.732,0.328,0.732,0.732v21.136
			C37.089,26.972,36.761,27.3,36.357,27.3z"/>
	</g>
	<g>
		<path style="fill:#1097AF;stroke:#000000;stroke-width:2;stroke-miterlimit:10;" d="M53.958,27.3H41.917
			c-0.404,0-0.732-0.328-0.732-0.732V5.432c0-0.404,0.328-0.732,0.732-0.732h12.041c0.404,0,0.732,0.328,0.732,0.732v21.136
			C54.69,26.972,54.362,27.3,53.958,27.3z"/>
	</g>
</svg>
