<svg version="1.1" xmlns="http://www.w3.org/2000/svg" viewBox="0 0 51 30">
	<g>
		<g>
			<path style="fill:#1097AF;stroke:#000000;stroke-width:2;stroke-miterlimit:10;" d="M44,29h2c2.209,0,4-1.791,4-4V5
				c0-2.209-1.791-4-4-4h-2V29z"/>
			<path style="fill:#1097AF;stroke:#000000;stroke-width:2;stroke-miterlimit:10;" d="M9,1H5C3.09,1,1,3.09,1,5v20
				c0,1.91,2.09,4,4,4h4V1z"/>
			<rect x="9" y="1" style="fill:#FFFFFF;" width="35" height="28"/>
			<rect x="9" y="1" style="fill:none;stroke:#000000;stroke-width:2;stroke-miterlimit:10;" width="35" height="28"/>
			<line style="fill:none;stroke:#000000;stroke-width:2;stroke-miterlimit:10;" x1="5" y1="13" x2="5" y2="18"/>
			<path style="fill:none;stroke:#000000;stroke-width:2;stroke-miterlimit:10;" d="M23,12"/>
			<path style="fill:none;stroke:#000000;stroke-width:2;stroke-miterlimit:10;" d="M31,12"/>
		</g>
		<g>
			<line style="fill:none;stroke:#000000;stroke-width:2;stroke-miterlimit:10;" x1="30.52" y1="15.52" x2="39" y2="24"/>
			<polyline style="fill:none;stroke:#000000;stroke-width:2;stroke-miterlimit:10;" points="39,18.343 39,24 33.343,24 		"/>
		</g>
		<g>
			<line style="fill:none;stroke:#000000;stroke-width:2;stroke-miterlimit:10;" x1="22.48" y1="14.48" x2="14" y2="6"/>
			<polyline style="fill:none;stroke:#000000;stroke-width:2;stroke-miterlimit:10;" points="14,11.657 14,6 19.657,6 		"/>
		</g>
	</g>
</svg>
