<svg version="1.1" xmlns="http://www.w3.org/2000/svg" viewBox="0 0 59 45">
	<g>
		<rect x="20" y="1" style="fill:#FFFFFF;" width="38" height="27"/>
		<rect x="1" y="9" style="fill:#FFFFFF;" width="38" height="27"/>
		<polyline style="fill:none;stroke:#000000;stroke-width:2;stroke-miterlimit:10;" points="51,28 58,28 58,1 20,1 20,6 	"/>
		<polyline style="fill:none;stroke:#000000;stroke-width:2;stroke-miterlimit:10;" points="39,14 39,9 1,9 1,36 8,36 	"/>
		<rect x="11" y="17" style="fill:#FFFFFF;stroke:#000000;stroke-width:2;stroke-miterlimit:10;" width="37" height="27"/>
		<circle style="fill:#1097AF;stroke:#000000;stroke-width:2;stroke-miterlimit:10;" cx="39" cy="25" r="3"/>
		<polygon style="fill:#1097AF;stroke:#000000;stroke-width:2;stroke-miterlimit:10;" points="35,32 31.5,35.5 24,28 11,41 11,44
			47,44 	"/>
		<polyline style="fill:none;stroke:#000000;stroke-width:2;stroke-miterlimit:10;" points="35,39 24,28 11,41 11,44 47,44 35,32
			32,35 	"/>
	</g>
</svg>
