<svg version="1.1" xmlns="http://www.w3.org/2000/svg" viewBox="0 0 38 38">
	<g>
		<circle fill="#E9EAEB" cx="19" cy="17.5" r="15.4"/>
		<path fill="#DA291C" d="M31.5,25.8c1.3,0,3-1.6,3-3v-4.8c0-2.5-2.3-4.2-4.2-4.2c0,0-3.3,0-4.2,0c-1.8,0-3.6,1.7-3.6,4.2v3.6v1.8
			c0,1.3,0.5,2.4,1.8,2.4v10.1h7.1V25.8z"/>
		<g>
			<path fill="#FFFFFF" d="M27.9,12.2c-1.6,0-3-1.3-3-3V8c0-1.7,1.4-3,3-3c1.6,0,3,1.3,3,3v1.2C30.9,10.9,29.5,12.2,27.9,12.2z"/>
			<path d="M27.9,12.8c-2,0-3.6-1.6-3.6-3.6V8c0-2,1.6-3.6,3.6-3.6s3.6,1.6,3.6,3.6v1.2C31.5,11.2,29.9,12.8,27.9,12.8z M27.9,5.6
				c-1.3,0-2.4,1.1-2.4,2.4v1.2c0,1.3,1.1,2.4,2.4,2.4s2.4-1.1,2.4-2.4V8C30.3,6.7,29.2,5.6,27.9,5.6z"/>
		</g>
		<rect x="30.9" y="18.1" width="1.2" height="17.8"/>
		<path d="M24.9,35.9h-1.2v-9.6C23,26.2,22,25.5,22,23.5v-1.8h1.2v1.8c0,1.8,0.9,1.8,1.2,1.8h0.6V35.9z"/>
		<rect x="27.3" y="25.8" width="1.2" height="10.1"/>
		<rect x="22" y="19.3" width="5.9" height="1.2"/>
		<rect x="19.6" y="19.3" width="1.2" height="1.2"/>
		<polygon points="26,23.4 25.1,22.6 27.8,19.9 25.1,17.2 26,16.4 29.5,19.9 	"/>
		<rect x="17.2" y="19.3" width="1.2" height="1.2"/>
		<path d="M31.5,26.4v-1.2c1,0,2.4-1.4,2.4-2.4v-4.8c0-2.2-2.1-3.6-3.6-3.6h-4.2c-1.5,0-3,1.3-3,3.6H22c0-3,2.1-4.8,4.2-4.8h4.2
			c2.2,0,4.8,2,4.8,4.8v4.8C35,24.5,33.1,26.4,31.5,26.4z"/>
		<g>

				<rect x="30.3" y="24" transform="matrix(-1 -4.493218e-11 4.493218e-11 -1 67.6875 54.0356)" fill="#FFFFFF" width="7.1" height="5.9"/>
			<path d="M38,30.6h-8.3v-7.1H38V30.6z M30.9,29.4h5.9v-4.8h-5.9V29.4z"/>
		</g>
		<path fill="#FFFFFF" d="M6.5,25.8c-1.2,0-3-1.6-3-3v-4.8c0-2.5,2.3-4.2,4.2-4.2c0,0,3.3,0,4.2,0c1.8,0,3.6,1.7,3.6,4.2v3.6v1.8
			c0,1.3-0.6,2.4-1.8,2.4v10.1H6.5V25.8z"/>
		<g>
			<path fill="#FFFFFF" d="M10.1,12.2c1.6,0,3-1.3,3-3V8c0-1.7-1.4-3-3-3c-1.6,0-3,1.3-3,3v1.2C7.1,10.9,8.5,12.2,10.1,12.2z"/>
			<path d="M10.1,12.8c-2,0-3.6-1.6-3.6-3.6V8c0-2,1.6-3.6,3.6-3.6s3.6,1.6,3.6,3.6v1.2C13.7,11.2,12.1,12.8,10.1,12.8z M10.1,5.6
				C8.8,5.6,7.7,6.7,7.7,8v1.2c0,1.3,1.1,2.4,2.4,2.4s2.4-1.1,2.4-2.4V8C12.5,6.7,11.4,5.6,10.1,5.6z"/>
		</g>
		<rect x="5.9" y="18.1" width="1.2" height="17.8"/>
		<path d="M14.2,35.9h-1.2V25.2h0.6c1.1,0,1.2-1.4,1.2-1.8v-1.8H16v1.8c0,1.5-0.7,2.6-1.8,2.9V35.9z"/>
		<rect x="9.5" y="25.8" width="1.2" height="10.1"/>
		<rect x="10.1" y="19.3" width="5.9" height="1.2"/>
		<polygon points="12,23.4 8.5,19.9 12,16.4 12.9,17.2 10.2,19.9 12.9,22.6 	"/>
		<path d="M6.5,26.4c-1.7,0-3.6-1.9-3.6-3.6v-4.8c0-2.7,2.5-4.8,4.8-4.8h4.2c2,0,4.2,1.8,4.2,4.8h-1.2c0-2.2-1.5-3.6-3-3.6H7.7
			c-1.5,0-3.6,1.4-3.6,3.6v4.8c0,1,1.4,2.4,2.4,2.4V26.4z"/>
		<g>
			<rect x="0.6" y="24" fill="#FFFFFF" width="7.1" height="5.9"/>
			<path d="M8.3,30.6H0v-7.1h8.3V30.6z M1.2,29.4h5.9v-4.8H1.2V29.4z"/>
		</g>
	</g>
</svg>
