<svg version="1.1" xmlns="http://www.w3.org/2000/svg" viewBox="0 0 38 38">
	<g>
		<circle fill="#E9EAEB" cx="19.7" cy="19.1" r="16.7"/>
		<g>
			<path fill="#FFFFFF" d="M26.6,14.3l-0.1-0.1c-0.7-0.7-0.7-1.7-0.2-2.3l2.5-2.3c0.9-0.9,2.2-1,2.9-0.3l0.1,0.1c0.7,0.7,0.5,2-0.4,2.8
				l-2.5,2.3C28.3,15.1,27.3,15,26.6,14.3z"/>
			<path d="M28,15.5c-0.6,0-1.3-0.3-1.8-0.8l-0.1-0.1c-0.4-0.4-0.7-1-0.7-1.6c0-0.6,0.2-1.2,0.6-1.6l2.5-2.3c1.1-1.1,2.8-1.2,3.7-0.2
				L32.2,9c0.9,0.9,0.7,2.6-0.4,3.7L29.3,15C29,15.4,28.5,15.5,28,15.5z M27.1,13.9c0.4,0.5,1.1,0.6,1.4,0.3l2.5-2.3
				c0.6-0.6,0.8-1.5,0.4-2l-0.1-0.1c-0.4-0.5-1.4-0.3-2,0.3l-2.5,2.3c-0.2,0.2-0.2,0.5-0.2,0.6c0,0.3,0.2,0.6,0.4,0.8L27.1,13.9z"/>
		</g>
		<g>
			<path fill="#FFFFFF" d="M14.1,17.4l-3.2-1.2L6.6,29.8C6.8,30,7,30.2,7.3,30.4c0.8,0.7,1.6,1.5,2.2,2.4l4.2,0.6c0.9-1,1.6-1.6,2.4-2.4
				c6.1,0.4,8.9-4.1,9.6-4.8C26.2,25.6,14.1,17.4,14.1,17.4z"/>
			<path d="M13.9,34.1l-4.7-0.7L9,33.2c-0.6-0.8-1.3-1.6-2.1-2.3c-0.2-0.2-0.5-0.4-0.7-0.6L5.9,30l4.6-14.6l3.9,1.5
				c5.3,3.6,11.7,8,11.8,9.2c0,0.2,0,0.4-0.2,0.6c0,0.1-0.1,0.1-0.2,0.3c-1,1.3-3.9,5-9.6,4.7c-0.7,0.7-1.3,1.3-2.2,2.2L13.9,34.1z
				 M9.8,32.3l3.6,0.5c0.8-0.9,1.4-1.4,2.1-2.1l0.3-0.3l0.3,0c5.3,0.4,7.9-3.1,8.8-4.3c0,0,0,0,0,0c-1-1.1-6.2-4.9-11.1-8.2L11.2,17
				l-4,12.6c0.1,0.1,0.3,0.2,0.4,0.4C8.5,30.7,9.2,31.5,9.8,32.3z"/>
		</g>
		<g>
			<path fill="#E9EAEB" d="M25.9,26.9l-10,0c-1.5,0-2.8-1.2-2.8-2.8l0-20.7c0-1.5,1.2-2.8,2.8-2.8l10,0c1.5,0,2.8,1.2,2.8,2.8l0,20.7
				C28.6,25.6,27.4,26.9,25.9,26.9z"/>
			<path d="M26.8,27.5H14.9c-1.3,0-2.4-1.1-2.4-2.4l0-22.7c0-1.3,1.1-2.4,2.4-2.4h11.9c1.3,0,2.4,1.1,2.4,2.4v22.7
				C29.2,26.4,28.2,27.5,26.8,27.5z M14.9,1.2c-0.7,0-1.2,0.5-1.2,1.2l0,22.7c0,0.7,0.5,1.2,1.2,1.2h11.9c0.7,0,1.2-0.5,1.2-1.2V2.4
				c0-0.7-0.5-1.2-1.2-1.2H14.9z"/>
		</g>
		<g>
			<rect x="13.1" y="3.6" fill="#FFFFFF" width="15.5" height="18.5"/>
			<path d="M29.2,22.7H12.5V3h16.7V22.7z M13.7,21.5H28V4.2H13.7V21.5z"/>
		</g>
		<g>
			<path fill="#FFFFFF" d="M28.3,26.3l-0.1-0.1c-0.7-0.6-0.9-1.4-0.6-1.8l1.6-1.8c0.6-0.7,1.6-0.7,2.3-0.1l0.1,0.1
				c0.7,0.6,0.8,1.6,0.2,2.2l-1.6,1.8C29.8,27.1,29,26.9,28.3,26.3z"/>
			<path d="M29.5,27.5c-0.1,0-0.2,0-0.3,0c-0.5-0.1-1-0.3-1.4-0.7l-0.1-0.1c-0.4-0.4-0.7-0.8-0.9-1.3c-0.2-0.5-0.1-1.1,0.2-1.4
				l1.6-1.8c0.8-0.9,2.2-1,3.1-0.2l0.1,0.1c0.9,0.8,1,2.2,0.3,3.1L30.6,27C30.4,27.3,30,27.5,29.5,27.5z M30.3,22.7
				c-0.3,0-0.5,0.1-0.7,0.3l-1.6,1.8c0,0,0,0.1,0,0.3c0.1,0.2,0.2,0.5,0.5,0.7l0.1,0.1c0.2,0.2,0.5,0.3,0.8,0.4c0.2,0,0.3,0,0.3,0
				l1.6-1.8c0.3-0.4,0.3-1-0.1-1.4L31,22.9C30.8,22.8,30.6,22.7,30.3,22.7z"/>
		</g>
		<path fill="#FFFFFF" d="M13.4,17.3c0.6-1.9,0.9-3.2,1.1-5.4c0.1-1.3-0.4-2.3-1-3.1c-0.6-0.8-2-0.6-2.2,0.3c-1.2,3.9-1.5,5-2.2,7
			c-0.8,2.2-0.4,5.3-0.8,6.2c-0.1,0.2-2.9,3.9-3.7,5c0.8,0.4,2.6,1.2,3.3,1.8c0.8,0.7,1.6,1.6,2.3,2.5l0.7,0.1l3.8-3.9
			C16.2,23.1,14.9,19.2,13.4,17.3z"/>
		<path d="M10.8,32.2l-0.9-0.1l-0.2-0.2c-0.6-0.9-1.4-1.7-2.2-2.4c-0.5-0.4-1.7-1-2.5-1.4c-0.2-0.1-0.4-0.2-0.6-0.3l-0.6-0.3l0.4-0.6
			c0.4-0.6,1.4-1.8,2.2-2.9c0.7-0.9,1.4-1.8,1.5-2c0.1-0.2,0.1-1,0.1-1.8c0-1.3,0.1-3,0.6-4.4c0.5-1.3,0.7-2.1,1.2-3.7
			c0.3-0.8,0.6-1.9,1-3.3c0.2-0.6,0.7-1.1,1.4-1.2c0.7-0.1,1.4,0.2,1.9,0.7c0.8,1.2,1.2,2.3,1.1,3.5c-0.2,2.2-0.5,3.5-1,5.2
			c1.5,2.1,2.7,6.1,1.1,10.7l-1.1-0.4c1.5-4.3,0.4-8-1.1-9.9l-0.2-0.3l0.1-0.3c0.6-1.8,0.8-3,1-5.2C14,11,13.7,10.1,13,9.2
			c-0.2-0.2-0.5-0.3-0.7-0.2c-0.2,0-0.4,0.1-0.5,0.4c-0.4,1.4-0.7,2.4-1,3.2c-0.5,1.5-0.7,2.5-1.2,3.8c-0.5,1.2-0.5,2.7-0.5,4
			c0,1,0,1.8-0.3,2.3c-0.1,0.1-0.2,0.3-1.6,2.2c-0.6,0.8-1.3,1.7-1.8,2.3c1,0.5,2.2,1.1,2.8,1.6c0.8,0.8,1.6,1.6,2.2,2.4l0.4,0
			L10.8,32.2z"/>
		<g>
			<rect x="6.4" y="24.4" transform="matrix(0.7074 -0.7068 0.7068 0.7074 -19.3229 15.1778)" fill="#DA291C" width="4.6" height="13"/>
			<path d="M11.6,38l-10-10l4.1-4.1l10,10L11.6,38z M3.3,27.9l8.3,8.4l2.4-2.4l-8.3-8.4L3.3,27.9z"/>
		</g>
		<g>
			<path fill="#FFFFFF" d="M28.3,22.2L28.2,22c-0.7-0.6-0.9-1.4-0.6-1.9l1.6-1.8c0.6-0.7,1.6-0.7,2.3-0.1l0.1,0.1
				c0.7,0.6,0.8,1.6,0.2,2.3l-1.6,1.8C29.9,22.9,29,22.7,28.3,22.2z"/>
			<path d="M29.6,23.3c-0.1,0-0.2,0-0.3,0c-0.5-0.1-1-0.3-1.4-0.7l0,0l-0.1-0.1c-0.4-0.4-0.7-0.8-0.9-1.3c-0.2-0.5-0.1-1.1,0.2-1.4
				l1.6-1.8c0.4-0.4,0.9-0.7,1.5-0.7c0.6,0,1.2,0.2,1.6,0.5l0.1,0.1c0.4,0.4,0.7,0.9,0.8,1.5c0.1,0.6-0.1,1.2-0.5,1.6l-1.6,1.8
				C30.4,23.1,30,23.3,29.6,23.3z M28.7,21.7c0.2,0.2,0.5,0.4,0.8,0.4c0.2,0,0.3,0,0.3,0l1.6-1.8c0.2-0.2,0.3-0.5,0.2-0.7
				c0-0.3-0.2-0.5-0.4-0.7l-0.1-0.1c-0.2-0.2-0.5-0.3-0.8-0.3c-0.3,0-0.5,0.1-0.7,0.3l-1.6,1.8c0,0,0,0.1,0,0.3
				c0.1,0.2,0.3,0.5,0.5,0.7L28.7,21.7z"/>
		</g>
		<g>
			<path fill="#FFFFFF" d="M28.3,18.1L28.2,18c-0.7-0.6-0.9-1.4-0.6-1.9l1.6-1.8c0.6-0.7,1.6-0.7,2.3-0.1l0.1,0.1
				c0.7,0.6,0.8,1.6,0.2,2.3l-1.6,1.8C29.9,18.8,29,18.7,28.3,18.1z"/>
			<path d="M29.6,19.2c-0.5,0-1.1-0.2-1.7-0.7l-0.1-0.1c-1-0.8-1.2-2-0.6-2.7l1.6-1.8c0.8-0.9,2.2-1,3.1-0.2l0.1,0.1
				c0.9,0.8,1.1,2.2,0.3,3.1l-1.6,1.8C30.4,19.1,30,19.2,29.6,19.2z M28.7,17.6c0.5,0.4,1,0.5,1.1,0.3l1.6-1.8
				c0.4-0.4,0.3-1.1-0.1-1.4l-0.1-0.1c-0.4-0.4-1.1-0.3-1.4,0.1L28,16.5c-0.1,0.1,0,0.6,0.5,1L28.7,17.6z"/>
		</g>
		<rect x="19.1" y="23.9" width="3.6" height="1.2"/>
	</g>
</svg>
