<svg version="1.1" xmlns="http://www.w3.org/2000/svg" viewBox="0 0 38 38">
<g>
	<g>
		<circle fill="#E8E8E9" cx="19" cy="19" r="18"/>
	</g>
	<g>
		<path fill="#5591AA" d="M30.2,37v-3.9c0-3.2-8.5-5.8-11.2-5.8S7.8,29.8,7.8,33.1V37"/>
		<path d="M30.8,37h-1.1v-3.9c0-2.6-7.8-5.2-10.6-5.2S8.4,30.5,8.4,33.1V37H7.2v-3.9c0-4,9.3-6.3,11.8-6.3c2.4,0,11.8,2.4,11.8,6.3
			V37z"/>
	</g>
	<g>
		<path fill="#FFFFFF" d="M23.5,28.7L20,31.1c-0.4,0.3-0.9,0.3-1.3,0l-3.6-2.4v-6.3h8.5v6.3H23.5z"/>
		<path d="M19.3,31.8c-0.3,0-0.7-0.1-1-0.3L14.5,29v-7.2h9.6V29l-3.8,2.6C20,31.8,19.7,31.8,19.3,31.8z M15.7,28.4l3.3,2.2
			c0.2,0.1,0.4,0.1,0.6,0l3.3-2.2V23h-7.3v5.4H15.7z"/>
	</g>
	<g>
		<path fill="#FFFFFF" d="M26.3,14.4c0-4.3-3.1-7.7-6.9-7.7l0,0c-3.8,0-6.9,3.5-6.9,7.7v5.2c0,4.3,4.8,7.7,6.9,7.7l0,0
			c2.6,0,6.9-3.5,6.9-7.7V14.4z"/>
		<path d="M19.3,27.8c-2.5,0-7.5-3.8-7.5-8.3v-5.1c0-4.6,3.4-8.3,7.5-8.3s7.5,3.7,7.5,8.3v5.1C26.8,24.1,22.3,27.8,19.3,27.8z
			 M19.3,7.2c-3.5,0-6.4,3.2-6.4,7.2v5.1c0,4,4.6,7.2,6.4,7.2c2.4,0,6.4-3.3,6.4-7.2v-5.1C25.7,10.4,22.8,7.2,19.3,7.2z"/>
	</g>
	<g>
		<path fill="#5591AA" d="M26.8,19.5L26.8,19.5v-5l0,0c1.4,0,2.5,1.1,2.5,2.5l0,0C29.3,18.3,28.2,19.5,26.8,19.5z"/>
		<path d="M26.8,20h-0.6v-6.2h0.6c1.7,0,3.1,1.4,3.1,3.1C29.9,18.7,28.5,20,26.8,20z M27.4,15.1v3.7c0.8-0.2,1.4-1,1.4-1.8
			C28.7,16.1,28.1,15.3,27.4,15.1z"/>
	</g>
	<g>
		<path fill="#5591AA" d="M12,19.3L12,19.3v-5l0,0c-1.4,0-2.5,1.1-2.5,2.5l0,0C9.5,18.2,10.6,19.3,12,19.3z"/>
		<path d="M12.6,19.8H12c-1.7,0-3.1-1.4-3.1-3.1s1.4-3.1,3.1-3.1h0.6V19.8z M11.4,14.9c-0.8,0.2-1.4,1-1.4,1.9s0.6,1.6,1.4,1.9V14.9
			z"/>
	</g>
	<g>
		<path fill="#5591AA" d="M19.9,25.4h-1.1c-0.8,0-1.4-0.6-1.4-1.4l0,0c0-0.8,0.6-1.4,1.4-1.4h1.1c0.8,0,1.4,0.6,1.4,1.4l0,0
			C21.3,24.8,20.7,25.4,19.9,25.4z"/>
		<path d="M19.9,26h-1.1c-1.1,0-2-0.9-2-2s0.9-2,2-2h1.1c1.1,0,2,0.9,2,2S21,26,19.9,26z M18.8,23.2c-0.5,0-0.8,0.4-0.8,0.8
			c0,0.5,0.4,0.8,0.8,0.8h1.1c0.5,0,0.8-0.4,0.8-0.8c0-0.5-0.4-0.8-0.8-0.8H18.8z"/>
	</g>
	<g>
		<path d="M25.1,24.6h-3.9v-1.1h3.9c1,0,1.8-0.8,1.8-1.8v-2.1H28v2.1C28,23.3,26.7,24.6,25.1,24.6z"/>
	</g>
	<g>
		<path d="M28.6,14.9h-1.1v-1.3c0-4.4-3.6-8-8-8s-8,3.6-8,8v1.3h-1.1v-1.3c0-5.1,4.1-9.2,9.2-9.2s9.2,4.1,9.2,9.2v1.3H28.6z"/>
	</g>
	<g>
		<path fill="#E8E8E9" d="M14.3,11.8c2.1,3.1,12.8,3,14.8,0.2c-4.1-0.5-3.4-5.4-9-5.4l0,0c-5.6,0-8.1,3.5-8.1,7.7v1.1
			c0.9,0,3.4-1.3,3.5-2.5"/>
		<path d="M12,16.1h-0.6v-1.7c0-5.1,3.3-8.3,8.7-8.3c3.3,0,4.6,1.6,5.8,3.1c0.9,1.1,1.6,2.1,3.3,2.3l1,0.1l-0.6,0.8
			c-1.2,1.8-5.1,2.4-7.9,2.4c-1.9,0-4.1-0.3-5.8-1C15.2,15,12.9,16.1,12,16.1z M20.1,7.2c-4.7,0-7.5,2.7-7.5,7.2v0.5
			c0.8-0.3,2-1.1,2.3-1.7c-0.4-0.3-0.8-0.6-1.1-1l0.9-0.6c0.8,1.2,3.6,2,6.9,2.1c2.7,0,5-0.5,6.2-1.2c-1.4-0.5-2.1-1.5-2.9-2.4
			C23.9,8.5,22.9,7.2,20.1,7.2z"/>
	</g>
</g>
</svg>
