<svg version="1.1" xmlns="http://www.w3.org/2000/svg" viewBox="0 0 1315 1147">
  <path fill="#231f20" opacity="1.00" d=" M 594.93 2.57 C 681.81 -4.31 770.05 3.13 854.00 26.84 C 918.72 45.08 980.80 73.00 1036.81 110.26 C 1077.46 137.27 1114.89 169.17 1147.76 205.27 C 1190.49 252.15 1225.41 306.17 1250.32 364.51 C 1280.82 435.55 1296.11 512.81 1296.70 590.04 C 1305.03 596.02 1311.78 605.33 1311.66 615.96 C 1311.66 693.63 1311.68 771.31 1311.66 848.98 C 1311.59 859.24 1305.23 868.38 1297.15 874.23 C 1284.73 883.23 1269.12 887.01 1253.95 887.07 C 1246.17 887.14 1239.16 881.78 1236.31 874.69 C 1223.44 884.20 1210.53 893.63 1197.66 903.14 C 1197.67 918.10 1197.67 933.05 1197.66 948.01 C 1197.51 954.54 1198.33 961.25 1196.36 967.60 C 1193.11 978.40 1183.97 987.17 1173.09 990.07 C 1167.17 991.59 1161.00 990.98 1154.97 991.10 C 1137.32 991.07 1119.68 991.15 1102.04 991.06 C 1094.19 991.09 1086.49 987.61 1081.19 981.85 C 1075.49 975.73 1072.36 967.38 1072.33 959.05 C 1072.33 800.35 1072.33 641.64 1072.34 482.94 C 1072.56 472.35 1076.81 461.80 1084.21 454.19 C 1088.81 449.38 1095.13 446.31 1101.81 445.89 C 1102.26 446.26 1103.17 447.01 1103.62 447.38 C 1123.75 447.26 1143.88 447.39 1164.01 447.31 C 1169.19 447.07 1174.34 448.56 1178.73 451.29 C 1190.62 458.81 1198.23 472.85 1197.69 486.96 C 1197.64 504.61 1197.68 522.26 1197.66 539.91 C 1207.22 546.20 1216.81 552.46 1226.41 558.71 C 1221.97 502.93 1208.70 447.81 1186.70 396.34 C 1157.82 328.49 1113.72 267.31 1058.98 217.96 C 1012.12 175.58 957.66 141.80 899.32 117.64 C 824.63 86.63 743.79 71.39 663.04 70.40 C 567.28 69.06 470.74 87.83 384.01 128.95 C 323.01 157.78 267.08 197.61 220.75 246.73 C 176.69 293.31 141.47 348.25 117.80 407.86 C 98.62 455.99 86.96 507.07 82.84 558.71 C 94.07 551.70 105.23 544.60 116.45 537.58 C 116.51 521.39 116.47 505.20 116.47 489.01 C 116.30 482.26 116.56 475.39 118.91 468.98 C 122.29 458.94 129.58 449.06 140.39 446.57 C 143.62 445.39 146.68 447.61 149.92 447.38 C 169.31 447.28 188.70 447.35 208.08 447.33 C 219.26 447.45 228.88 455.10 234.89 464.02 C 237.49 468.25 240.28 472.79 240.50 477.89 C 240.50 640.29 240.50 802.69 240.50 965.09 C 240.36 969.86 237.50 974.02 234.76 977.73 C 228.37 985.75 218.38 991.04 208.03 991.02 C 187.03 991.02 166.02 991.03 145.02 991.01 C 137.67 991.09 130.38 987.98 125.38 982.60 C 119.46 976.32 116.50 967.61 116.49 959.05 C 116.47 941.68 116.47 924.31 116.50 906.94 C 117.11 904.14 114.21 903.01 112.44 901.62 C 99.23 892.29 86.12 882.84 72.95 873.46 C 70.06 880.60 62.95 885.96 55.10 885.82 C 40.34 885.75 25.05 882.02 13.29 872.76 C 5.96 867.05 0.82 858.51 0.00 849.17 L 0.00 614.68 C 0.28 604.64 6.07 595.92 13.69 589.84 C 14.34 577.08 14.60 564.28 15.75 551.54 C 20.39 493.50 33.39 436.08 54.76 381.90 C 78.43 321.72 112.43 265.64 154.75 216.74 C 196.53 168.34 246.37 127.01 301.25 94.24 C 390.13 41.06 491.89 10.76 594.93 2.57 Z" />
  <path fill="#231f20" opacity="1.00" d=" M 314.42 547.59 C 395.86 466.07 477.34 384.60 558.84 303.15 C 583.10 327.39 607.36 351.64 631.59 375.91 C 550.14 457.41 468.65 538.88 387.16 620.35 C 362.91 596.10 338.64 571.87 314.42 547.59 Z" />
  <path fill="#231f20" opacity="1.00" d=" M 418.42 771.90 C 418.42 738.84 418.39 705.77 418.44 672.70 C 532.46 672.67 646.49 672.68 760.52 672.69 C 760.56 705.76 760.53 738.83 760.54 771.91 C 646.50 771.92 532.46 771.93 418.42 771.90 Z" />
  <path fill="#231f20" opacity="1.00" d=" M 314.41 902.09 C 339.08 877.37 363.77 852.69 388.48 828.02 C 469.92 909.92 551.39 991.79 632.86 1073.66 C 608.64 1098.08 584.03 1122.12 560.05 1146.76 C 547.73 1133.84 534.76 1121.54 522.22 1108.83 C 452.94 1039.94 383.66 971.02 314.41 902.09 Z" />
</svg>
