<svg version="1.1" xmlns="http://www.w3.org/2000/svg" viewBox="0 0 40.4 32.8">
	<g>
		<path fill="#FFFFFF" d="M13.7,25.1c0,1.7-1.4,3-3.1,3c-1.7,0-3.1-1.3-3.1-3c0-1.7,1.4-3,3.1-3
			C12.3,22.1,13.7,23.4,13.7,25.1 M30.2,22.1c1.7,0,3.1,1.3,3.1,3c0,1.7-1.4,3-3.1,3s-3.1-1.3-3.1-3
			C27.1,23.4,28.5,22.1,30.2,22.1 M40.2,3.6c-0.2-0.2-0.4-0.3-0.7-0.3h-0.8H35c-0.5,0-0.9,0.4-0.9,0.9c0,0.5,0.4,0.9,0.9,0.9h3.3
			l-3.3,11.2c0,0.1,0,0.2,0,0.2c0,0.3-0.2,0.3-0.4,0.3H13L9.3,4.9h3.4c0.5,0,0.9-0.4,0.9-0.9c0-0.5-0.4-0.9-0.9-0.9H9H8.4L7-0.9
			C6.9-1.2,6.7-1.4,6.4-1.5L1.1-3C0.7-3.1,0.2-2.8,0-2.4c-0.1,0.5,0.1,0.9,0.6,1.1L5.5,0l6,17.5l-0.9,2.9c-2.6,0-4.8,2.1-4.8,4.7
			c0,2.6,2.2,4.7,4.8,4.7c2.4,0,4.3-1.7,4.7-3.9h10.1c0.4,2.2,2.4,3.9,4.7,3.9c2.7,0,4.8-2.1,4.8-4.7s-2.2-4.7-4.8-4.7
			c-2.4,0-4.3,1.7-4.7,3.9H15.4c-0.3-1.6-1.5-3-3.1-3.5l0.7-2.3h21.6c1.2,0,2.1-0.8,2.1-1.9l3.6-12.1C40.4,4,40.4,3.8,40.2,3.6"
			/>
	</g>
</svg>
