<svg version="1.1" xmlns="http://www.w3.org/2000/svg" viewBox="0 0 133.4 147.8">
<g>
	<rect x="94.8" y="17.2" style="fill:#DA291C;" width="21.8" height="9.2"/>
	<rect x="63.1" y="17.2" style="fill:#DA291C;" width="24" height="28.2"/>
	<rect x="94.8" y="36" style="fill:#DA291C;" width="21.8" height="9.2"/>
	<path style="fill:#DA291C;" d="M133.4,3.8V0H47.3v3.4c0,0.2-0.1,0.3-0.1,0.5v48.1h-32v0c-8.3,0-15.1,7-15.1,15.5l0,0v75.1
		c0,2.6,1.7,4.7,3.9,4.7h0v0.5h78.3c2.1,0,3.9-1.7,3.9-3.9v-25.5h31.6c8.7,0,15.7-7,15.7-15.6L133.4,3.8
		C133.4,3.8,133.4,3.8,133.4,3.8z M17.6,140.1H7.8v-9.6h9.8V140.1z M17.6,122.8H7.8v-9.8h9.8V122.8z M17.6,105.3H7.8v-9.8h9.8V105.3
		z M17.6,87.8H7.8V77.7h9.8V87.8z M17.6,70H7.8v-4.4c0.8-3.4,3.8-6,7.4-6h2.4V70z M56.9,109.1c0,2.6-3.1,4.8-7,4.8
		c-3.7,0-6.8-2.2-6.8-4.8s3.1-4.8,6.8-4.8c0.9,0,1.6,0.2,2.4,0.4V90.8l-15.6,4.4v19.6c0,2.6-3.1,4.8-7,4.8c-3.7,0-6.8-2.2-6.8-4.8
		c0-2.6,3.1-4.6,6.8-4.6c0.9,0,1.6,0,2.4,0.2V89.7v-2c8.2-2.2,16.6-4.2,24.7-6.8C56.9,90.3,56.9,99.8,56.9,109.1z M78.3,95.6l0,9.8
		h-9.8v-9.8H78.3z M68.5,87.8V77.7h9.8l0,10.1H68.5z M78.3,113.1l0,9.8h-9.9v-9.8H78.3z M78.3,140.1h-9.9v-9.6h9.9V140.1z
		 M78.5,67.5l0,2.5h-9.9v-2.8c0.1-3.8,3-7,6.8-7.5h5.4C79.3,61.9,78.5,64.6,78.5,67.5z M86.1,110.8V74.5l0.1-7
		c0-4.3,3.6-7.9,7.9-7.9c4.4,0,7.9,3.5,7.9,7.9l-0.1,35.4c0,2.9,0.8,5.6,2.2,7.9H86.1z M125.6,102.9L125.6,102.9
		c0,4.3-3.6,7.9-8,7.9c-4.4,0-7.9-3.5-7.9-7.9l0-8.3c0,0,0-0.1,0-0.1l0.1-27c0-8.5-6.8-15.3-15.3-15.6l0,0h-0.1c-0.1,0-0.2,0-0.4,0
		c-0.1,0-0.2,0-0.4,0H76.4v-0.1c-0.4,0-0.8,0.1-1.2,0.1H54.9V7.7h70.7V102.9z"/>
</g>
</svg>
