<svg version="1.1" xmlns="http://www.w3.org/2000/svg" viewBox="0 0 162 149.6">
<g>
	<path style="fill:#DA291C;" d="M73.4,4.2c2-1.6,3.9-3.7,6.5-4.1c2.4-0.5,4.8,0.6,6.5,2.2c24.3,20.4,48.8,40.7,73.1,61.1
		c3.4,2.8,3.2,8.6-0.3,11.2c-2.6,2.2-6.2,1.4-9.3,1.5c0,22,0,44,0,66.1c0.2,4-3.3,7.7-7.4,7.5c-40.9,0-81.7,0-122.6,0
		c-3.9,0.2-7.4-3.2-7.4-7c0-22.2,0-44.3,0-66.5c-3-0.1-6.2,0.6-8.9-1c-2.1-1.2-3.3-3.5-3.5-5.8v-1c0.2-2.7,2.1-4.8,4.2-6.4
		C27.3,42.7,50.3,23.4,73.4,4.2 M76.7,9.7C53.8,28.8,30.9,47.9,8,67c-0.7,0.6-1.3,1.2-2,1.9c0.3,0.2,0.9,0.6,1.2,0.8
		c3.1,0.3,6.2-0.1,9.2,0.2c1.6,0.3,2.6,1.9,2.4,3.4c0,22.8,0,45.6,0,68.4c0,0.5,0,1.2,0.5,1.5c1.7,0.3,3.4,0.1,5.1,0.1
		c39.2,0,78.4,0,117.6,0c0.8,0.1,1.6-0.3,1.5-1.2c0-23.1,0-46.2,0-69.2c-0.1-1.4,1.1-2.7,2.4-3c3-0.3,6.2,0.2,9.2-0.2
		c1-0.6,0.2-1.5-0.5-2c-23.5-19.6-47-39.2-70.5-58.8c-1-0.9-2-1.8-3.2-2.5C79.4,7,78.2,8.6,76.7,9.7z"/>
	<rect x="61.7" y="81.7" style="fill:none;stroke:#DA291C;stroke-width:5;stroke-miterlimit:10;" width="38.6" height="64.6"/>
</g>
</svg>
