<svg version="1.1" xmlns="http://www.w3.org/2000/svg" viewBox="0 0 34.7 50.8">
	<path fill="#DA282B" d="M14,0c1.1,0.1,2.2,0,3.3,0l0,0c-0.1,3.1,0,6.3,0,9.4c-1.1-0.1-2.2,0-3.4,0C14,6.3,13.9,3.1,14,0z"/>
	<path fill="#DA282B" d="M21.2,10.6c3-2.9,5.9-5.9,8.9-8.9c0.8,0.8,1.5,1.6,2.3,2.3c-3,3-5.9,5.9-8.9,8.9C22.8,12.1,22,11.4,21.2,10.6z"
		/>
	<path fill="#DA282B" d="M7.8,18.3c0.6-2.9,3-5.2,5.9-5.9c1-0.1,2.1-0.1,3.1,0c2.8,0.6,5.3,2.9,5.9,5.7c0.4,1.9,0.2,4-0.8,5.8
		c-1.2,2.1-3.4,3.6-5.8,3.9c-3.4,0.5-6.8-1.9-8-5C7.6,21.3,7.6,19.8,7.8,18.3 M13.6,16.4c-1.2,0.6-2.1,1.8-2.3,3.2
		c-0.4,2.2,1.5,4.6,3.8,4.6c1.7,0.1,3.3-0.9,3.9-2.5c0.9-2-0.1-4.5-2.1-5.3C15.9,15.9,14.7,15.9,13.6,16.4z"/>
	<path fill="#DA282B" d="M25,16.7c3.2,0,6.5,0,9.7,0c0,1.1,0,2.2,0,3.3c-3.2,0-6.5,0-9.7,0C25,18.9,25,17.8,25,16.7z"/>
	<path fill="#DA282B" d="M13.2,30.5C17,29.9,20.9,30.9,24,33c3.2,2.2,5.5,5.7,6.3,9.5c0.3,1.8,0.7,3.8-0.3,5.5c-0.8,1.6-2.6,2.7-4.4,2.8
		c-7,0-13.9,0-20.9,0c-2.3-0.2-4.4-2.1-4.7-4.4c-0.3-2.9,0.5-5.8,1.9-8.3C4.3,34,8.5,31.1,13.2,30.5z"/>
</svg>
