<svg version="1.1" xmlns="http://www.w3.org/2000/svg" viewBox="0 0 250 142">
	<g>
		<circle style="fill:#FFFFFF;stroke:#BCC0C4;stroke-width:1.4;" cx="242.7" cy="30.7" r="5.8"/>
		<circle style="fill:#EBEBEB;" cx="125.4" cy="71.1" r="70.5"/>
		<circle style="fill:#FFFFFF;stroke:#EBEBEB;" cx="6.3" cy="130.2" r="5.8"/>
		<rect x="44.5" y="124.9" style="fill:#EBEBEB;" width="5" height="14.8"/>
		<rect x="39.5" y="129.9" style="fill:#EBEBEB;" width="15" height="4.9"/>
		<rect x="20.2" y="82.6" style="fill:#BCC0C4;" width="6.4" height="19.1"/>
		<rect x="13.8" y="88.9" style="fill:#BCC0C4;" width="19.2" height="6.4"/>
		<rect x="28.1" y="42.4" style="fill:#EBEBEB;" width="3.6" height="10.6"/>
		<rect x="24.5" y="45.9" style="fill:#EBEBEB;" width="10.7" height="3.5"/>
		<rect x="206.2" y="4.2" style="fill:#EBEBEB;" width="6.4" height="19.1"/>
		<rect x="199.8" y="10.6" style="fill:#EBEBEB;" width="19.2" height="6.4"/>
		<rect x="229" y="52.9" style="fill:#BCC0C4;" width="3.6" height="10.6"/>
		<rect x="225.5" y="56.5" style="fill:#BCC0C4;" width="10.7" height="3.5"/>
		<rect x="221.9" y="91.1" style="fill:#EBEBEB;" width="5" height="14.8"/>
		<rect x="216.9" y="96" style="fill:#EBEBEB;" width="15" height="4.9"/>
	</g>
	<g>
		<g>
			<path style="fill:#EC3A32;stroke:#291000;stroke-width:1.4;" d="M118,89.2c0-5.3,0.6-9.5,1.9-12.6c1.3-3.1,3.6-6.2,7-9.2
				c3.4-3,5.7-5.5,6.8-7.4c1.1-1.9,1.7-3.9,1.7-6c0-6.4-2.9-9.5-8.8-9.5c-2.8,0-5,0.9-6.7,2.6c-1.7,1.7-2.5,4.1-2.6,7.1H101
				c0.1-7.2,2.4-12.8,7-16.9c4.6-4.1,10.8-6.1,18.7-6.1c8,0,14.1,1.9,18.5,5.8c4.4,3.9,6.6,9.3,6.6,16.3c0,3.2-0.7,6.2-2.1,9.1
				c-1.4,2.8-3.9,6-7.5,9.4l-4.6,4.3c-2.9,2.7-4.5,6-4.9,9.6l-0.2,3.4H118z M116.4,106.5c0-2.5,0.9-4.6,2.6-6.2
				c1.7-1.6,3.9-2.4,6.6-2.4c2.7,0,4.9,0.8,6.6,2.4c1.7,1.6,2.6,3.7,2.6,6.2c0,2.5-0.8,4.5-2.5,6.1c-1.7,1.6-3.9,2.4-6.6,2.4
				c-2.7,0-5-0.8-6.6-2.4C117.2,111,116.4,109,116.4,106.5z"/>
		</g>
	</g>
</svg>
