<svg version="1.1" xmlns="http://www.w3.org/2000/svg" viewBox="0 0 49.6 72">
<g>
	<g>
		<path fill="#5995AB" d="M24.8,72c-1.7,0-3.1-1.3-3.2-3c-0.8-9.7-5.6-15.1-10.7-20.9C5.5,42.2,0,36,0,25C0,11.2,11.1,0,24.8,0
			s24.8,11.2,24.8,25c0,10.9-5.5,17.1-10.8,23.1C33.6,53.9,28.8,59.3,28,69C27.9,70.7,26.5,72,24.8,72z M24.8,2.9
			c-12.1,0-21.9,9.9-21.9,22.2c0,9.8,4.9,15.3,10.1,21.2s10.6,11.9,11.5,22.5c0,0.2,0.1,0.4,0.3,0.4s0.3-0.2,0.3-0.4
			c0.9-10.6,6.3-16.7,11.5-22.5c5.2-5.9,10.1-11.4,10.1-21.3C46.7,12.8,36.9,2.9,24.8,2.9z"/>
	</g>
	<g>
		<path fill="#5995AB" d="M24.8,34.1c-4.9,0-8.9-4-8.9-9s4-9,8.9-9s8.9,4,8.9,9S29.7,34.1,24.8,34.1z M24.8,18.9
			c-3.3,0-6.1,2.8-6.1,6.1s2.7,6.1,6.1,6.1s6.1-2.8,6.1-6.1S28.1,18.9,24.8,18.9z"/>
	</g>
</g>
</svg>
