<svg version="1.1" xmlns="http://www.w3.org/2000/svg" viewBox="0 0 44.8 44.8">
	<path fill="#2AD42A" d="M21.3,0c3.9-0.2,7.8,0.6,11.2,2.4c4,2,7.3,5.2,9.5,9.1c1.4,2.5,2.3,5.2,2.6,8c0.7,5-0.4,10.2-3,14.5
		c-2.4,3.9-6,7.1-10.2,8.9c-2.8,1.2-5.8,1.9-8.8,1.9c-4.8,0.1-9.6-1.5-13.5-4.3c-2.2-1.6-4-3.6-5.5-5.8c-1.9-2.9-3.1-6.2-3.5-9.6
		c-0.4-3.2-0.1-6.5,0.9-9.6c0.9-2.9,2.5-5.7,4.6-8c2-2.3,4.6-4.2,7.4-5.5C15.6,0.9,18.4,0.2,21.3,0 M16.5,28.9
		c-2.3-2.5-4.5-5-6.8-7.5c-0.8,0.8-1.6,1.7-2.3,2.5c3,3.3,6.1,6.7,9.1,10c6.5-7.2,13-14.3,19.5-21.5c-0.7-0.8-1.4-1.7-2.1-2.5
		C28.1,16.2,22.3,22.5,16.5,28.9z"/>
	<path fill="#FFFFFF" d="M16.5,28.9c5.8-6.3,11.6-12.7,17.4-19c0.7,0.8,1.4,1.7,2.1,2.5c-6.5,7.2-13,14.3-19.5,21.5
		c-3-3.3-6.1-6.7-9.1-10c0.8-0.8,1.6-1.7,2.3-2.5C11.9,23.8,14.2,26.3,16.5,28.9z"/>
</svg>
