<svg version="1.1" xmlns="http://www.w3.org/2000/svg" viewBox="0 0 250 142">
	<g>
		<circle style="fill:#FFFFFF;stroke:#BCC0C4;stroke-width:1.4;" cx="242.7" cy="30.7" r="5.8"/>
		<circle style="fill:#EBEBEB;" cx="125.4" cy="71.1" r="70.5"/>
		<circle style="fill:#FFFFFF;stroke:#EBEBEB;" cx="6.3" cy="130.2" r="5.8"/>
		<rect x="44.5" y="124.9" style="fill:#EBEBEB;" width="5" height="14.8"/>
		<rect x="39.5" y="129.9" style="fill:#EBEBEB;" width="15" height="4.9"/>
		<rect x="20.2" y="82.6" style="fill:#BCC0C4;" width="6.4" height="19.1"/>
		<rect x="13.8" y="88.9" style="fill:#BCC0C4;" width="19.2" height="6.4"/>
		<rect x="28.1" y="42.4" style="fill:#EBEBEB;" width="3.6" height="10.6"/>
		<rect x="24.5" y="45.9" style="fill:#EBEBEB;" width="10.7" height="3.5"/>
		<rect x="206.2" y="4.2" style="fill:#EBEBEB;" width="6.4" height="19.1"/>
		<rect x="199.8" y="10.6" style="fill:#EBEBEB;" width="19.2" height="6.4"/>
		<rect x="229" y="52.9" style="fill:#BCC0C4;" width="3.6" height="10.6"/>
		<rect x="225.5" y="56.5" style="fill:#BCC0C4;" width="10.7" height="3.5"/>
		<rect x="221.9" y="91.1" style="fill:#EBEBEB;" width="5" height="14.8"/>
		<rect x="216.9" y="96" style="fill:#EBEBEB;" width="15" height="4.9"/>
	</g>
	<g>
		<rect x="93.8" y="40.9" style="fill:#F4F4F4;" width="64.9" height="81.3"/>
		<rect x="94.8" y="125.1" style="fill:#DA291C;" width="63.5" height="16.9"/>
		<rect x="95.2" y="27.5" style="fill:#DA291C;" width="62.7" height="10.5"/>
		<path style="fill:none;stroke:#000000;stroke-width:5;" d="M154.4,144.8H98.8c-3,0-5.5-2.5-5.5-5.5V31.1c0-3,2.5-5.5,5.5-5.5h55.7
			c3,0,5.5,2.5,5.5,5.5v108.3C159.9,142.4,157.4,144.8,154.4,144.8z"/>
		<line style="fill:none;stroke:#000000;stroke-width:5;" x1="93.5" y1="39.9" x2="159.9" y2="39.9"/>
		<line style="fill:none;stroke:#000000;stroke-width:5;" x1="93" y1="123.5" x2="159.4" y2="123.5"/>
		<circle style="fill:#FCDEDE;" cx="105.9" cy="93.8" r="2"/>
		<circle style="fill:#FCDEDE;" cx="146.3" cy="93.8" r="2"/>
		<path d="M126.8,138.3L126.8,138.3c-1.8,0-3.3-1.5-3.3-3.3l0,0c0-1.8,1.5-3.3,3.3-3.3h0c1.8,0,3.3,1.5,3.3,3.3l0,0
			C130.1,136.9,128.6,138.3,126.8,138.3z"/>
		<path id="Fill-9_1_" d="M131.9,98.8c1,0,1.7-0.6,1.7-1.4c0-3.1-3.2-5.7-7-5.7s-7,2.5-7,5.7c0,0.8,0.8,1.4,1.7,1.4H131.9z"/>
		<path d="M140.4,87c1.3,0,2.4,0.3,3.3,0.9c0-0.2,0.1-0.4,0.1-0.6c0-1.8-1.5-3.3-3.3-3.3s-3.3,1.5-3.3,3.3c0,0.2,0,0.4,0.1,0.6
			C138,87.4,139.2,87,140.4,87z"/>
		<path d="M112.8,87c1.3,0,2.4,0.3,3.3,0.9c0-0.2,0.1-0.4,0.1-0.6c0-1.8-1.5-3.3-3.3-3.3s-3.3,1.5-3.3,3.3c0,0.2,0,0.4,0.1,0.6
			C110.4,87.4,111.6,87,112.8,87z"/>
		<circle style="fill:none;stroke:#FFFFFF;stroke-width:10;" cx="125.3" cy="71.1" r="75.9"/>
	</g>
</svg>
