<svg version="1.1" xmlns="http://www.w3.org/2000/svg" viewBox="0 0 875 678">
	<path d="M262.7,117.6C302.3,78.4,341.9,39.2,381.5,0c49.8,49.5,99.7,99,149.5,148.5c19.6-15.7,42.4-27.5,66.6-34.4
		c38.5-10.7,80.5-9.5,118,4.5c35.3,12.7,66.4,36.4,88.7,66.6c23,31.4,36.4,69.9,37,108.9c0.9,30.6-6.9,61.3-21.5,88.1
		c-14.4,26.8-34.3,50.1-54,73.1c-19.6,22.8-39.6,45.6-55.9,71c-18.6,28.7-32,61-37.4,94.8c-0.4,8.8-0.1,17.6-0.2,26.4
		c48.9,0,97.8,0,146.8,0c0,5.6,0,11.2,0,16.8c-167.8,0.1-335.7,0-503.5,0c-74.9,0.2-149.8,0-224.7,0c-0.1-85.6,0-171.2,0-256.8
		c-20.2-19.9-40.5-39.7-60.7-59.6c43.6-43.1,87.1-86.2,130.7-129.3c0-57.7,0-115.4,0-173.1c34,0,68,0,102,0
		C262.7,69.5,262.8,93.5,262.7,117.6 M54,347.8c15,14.8,30.1,29.5,45.1,44.2c94.2-93.3,188.3-186.7,282.4-280
		c33.1,32.8,66.1,65.6,99.1,98.3c9.8-18.8,22.6-35.9,37.8-50.6c-45.7-45.3-91.3-90.7-137-136C272.3,131.7,163.2,239.8,54,347.8
		 M177.6,62.2c0,46.5,0,93.1,0,139.6c22.8-22.6,45.6-45.1,68.4-67.7c0-24,0-47.9,0-71.9C223.2,62.2,200.4,62.2,177.6,62.2
		 M565.2,145.7c-30.1,16.8-54.8,42.9-70.4,73.6c-17.7,34.7-23.7,75.5-15.5,113.6c4.9,23,15.5,44.4,28.4,63.8
		c18.5,27.6,41.3,51.9,62.4,77.6c21.9,26.2,42.3,54.2,56.3,85.6c12.6,27.5,19.9,57.3,22,87.5c1.3,0,2.6,0,3.9,0
		c1.8-26.3,7-52.5,16.4-77.2c10.7-28.5,26.7-54.7,45.2-78.8c20.2-26.3,42.9-50.5,63.6-76.3c17.4-21.9,32.9-46,40.8-73.1
		c6.8-22.9,7.8-47.4,4.2-70.9c-5.5-35.2-22.2-68.5-47-94c-22.7-23.5-52-40.5-83.7-48.2C649.5,118.4,603.2,124.1,565.2,145.7
		 M107.6,407.4c0,80,0,160,0,240c22.4,0,44.8,0,67.2,0c0-70,0-140,0-210c43.3,0,86.7,0,130,0c0,70,0,140,0,210
		c108.9,0,217.9,0,326.8,0c-1-13.6-3.1-27.2-6.4-40.4c-7.2-29.6-20.8-57.4-38-82.5c-22.2-32.9-49.8-61.6-74.5-92.6
		c-19.4-24.4-36.9-51-46-81.1c-12.5-40.5-9.6-85.1,6.5-124.2c-30.6-30.3-61.1-60.6-91.7-90.8C290.2,226.2,198.9,316.8,107.6,407.4
		 M191.6,454.2c0,64.4,0,128.8,0,193.2c32.1,0,64.2,0,96.4,0c0-64.4,0-128.8,0-193.2C255.8,454.2,223.7,454.2,191.6,454.2z"/>
	<path fill="#E9EAEB" d="M54,347.8c109.2-108,218.3-216.1,327.5-324.1c45.7,45.3,91.3,90.6,137,136c-15.2,14.7-28,31.9-37.8,50.6
		c-33-32.8-66.1-65.6-99.1-98.3c-94.1,93.3-188.2,186.7-282.4,280C84.1,377.3,69,362.6,54,347.8z"/>
	<path fill="#FFFFFF" d="M177.6,62.2c22.8,0,45.6,0,68.4,0c0,24,0,47.9,0,71.9c-22.8,22.6-45.6,45.1-68.4,67.7
		C177.6,155.3,177.6,108.8,177.6,62.2z"/>
	<path fill="#ED3A32" d="M565.2,145.7c37.9-21.7,84.3-27.3,126.6-16.9c31.8,7.7,61.1,24.7,83.7,48.2c24.9,25.5,41.5,58.8,47,94
		c3.6,23.6,2.6,48-4.2,70.9c-7.9,27.1-23.5,51.1-40.8,73.1c-20.7,25.9-43.4,50-63.6,76.3c-18.4,24.1-34.5,50.3-45.2,78.8
		c-9.3,24.7-14.6,50.9-16.4,77.2c-1.3,0-2.6,0-3.9,0c-2.1-30.1-9.4-60-22-87.5c-14.1-31.3-34.4-59.3-56.3-85.6
		c-21-25.6-43.9-50-62.4-77.6c-13-19.4-23.5-40.9-28.4-63.8c-8.2-38.2-2.2-78.9,15.5-113.6C510.5,188.6,535.1,162.5,565.2,145.7
		 M637,235.7c-14.8,2.9-28.4,11.1-37.8,22.9c-9.1,11.3-14.1,25.9-13.7,40.4c0.3,14.3,5.7,28.3,14.9,39.2c10.7,12.7,26.5,20.9,43,22.4
		c16.4,1.7,33.3-3.1,46.3-13.3c11.3-8.7,19.6-21.4,22.8-35.3c3.4-14,1.6-29.2-4.9-42.1c-6.2-12.5-16.6-22.8-29.2-28.9
		C665.8,234.8,650.9,232.9,637,235.7z"/>
	<path fill="#FFFFFF" d="M107.6,407.4c91.3-90.6,182.6-181.1,273.9-271.7c30.6,30.2,61.1,60.6,91.7,90.8c-16,39.1-18.9,83.7-6.5,124.2
		c9.1,30.1,26.6,56.7,46,81.1c24.7,31,52.2,59.7,74.5,92.6c17.2,25.1,30.7,52.9,38,82.5c3.3,13.3,5.4,26.8,6.4,40.4
		c-109,0-217.9,0-326.8,0c0-70,0-140,0-210c-43.3,0-86.7,0-130,0c0,70,0,140,0,210c-22.4,0-44.8,0-67.2,0
		C107.6,567.4,107.6,487.4,107.6,407.4 M343.9,437.4c0,42.9,0,85.9,0,128.8c48,0,96,0,144,0c0-42.9,0-85.9,0-128.8
		C439.9,437.4,391.9,437.5,343.9,437.4z"/>
	<path d="M637,235.7c13.9-2.8,28.8-0.9,41.6,5.3c12.5,6.1,23,16.4,29.2,28.9c6.5,12.9,8.2,28,4.9,42.1c-3.3,13.9-11.5,26.6-22.8,35.3
		c-13,10.1-30,15-46.3,13.3c-16.5-1.6-32.3-9.7-43-22.4c-9.2-10.8-14.7-24.9-14.9-39.2c-0.4-14.5,4.6-29.1,13.7-40.4
		C608.6,246.8,622.2,238.6,637,235.7 M642,251.9c-17.3,2.6-32.6,15.4-37.7,32.2c-4.1,12.9-2,27.5,5.4,38.7c7.8,12,21.4,20,35.7,21.2
		c14.4,1.4,29.4-4.1,39.3-14.7c9.2-9.5,13.9-23.2,12.4-36.4c-1.2-12.2-7.7-23.6-17.3-31.2C669.4,253.2,655.3,249.7,642,251.9z"/>
	<path fill="#FFFFFF" d="M642,251.9c13.2-2.2,27.3,1.4,37.8,9.8c9.6,7.6,16.1,19,17.3,31.2c1.5,13.2-3.2,26.8-12.4,36.4
		c-9.9,10.6-24.9,16.1-39.3,14.7c-14.3-1.2-27.8-9.1-35.7-21.2c-7.5-11.2-9.6-25.8-5.4-38.7C609.4,267.3,624.8,254.5,642,251.9z"/>
	<path d="M343.9,437.4c48,0,96,0,144,0c0,42.9,0,85.9,0,128.8c-48,0-96,0-144,0C343.9,523.3,344,480.4,343.9,437.4 M360.7,454.2
		c0,31.7,0,63.5,0,95.2c36.8,0,73.6,0,110.4,0c0-31.7,0-63.5,0-95.2C434.3,454.2,397.5,454.2,360.7,454.2z"/>
	<path fill="#E9EAEB" d="M191.6,454.2c32.1,0,64.2,0,96.4,0c0,64.4,0,128.8,0,193.2c-32.1,0-64.2,0-96.4,0
		C191.6,583,191.6,518.6,191.6,454.2z"/>
	<path fill="#FFFFFF" d="M360.7,454.2c36.8,0,73.6,0,110.4,0c0,31.7,0,63.5,0,95.2c-36.8,0-73.6,0-110.4,0
		C360.7,517.7,360.8,486,360.7,454.2z"/>
	<path d="M0,647.4c9.3,0,18.7,0,28,0c0,5.6,0,11.2,0,16.8c-9.3,0-18.7,0-28,0C0,658.6,0,653,0,647.4z"/>
	<path d="M56,647.4c9.7,0,19.4,0,29.2,0c0,5.6,0,11.2,0,16.8c-9.7,0-19.4,0-29.2,0C56,658.6,56,653,56,647.4z"/>
	<path d="M833,647.4c14,0,28,0,42,0c0,5.6,0,11.2,0,16.8c-14,0-28,0-42,0C833,658.6,833,653,833,647.4z"/>
	<path fill="#D9D9D9" d="M110.8,678c2.5-0.7,5-1.3,7.6-1.3c209.4,0,418.7,0.1,628.1,0c6.1,0,12.3-0.5,18.3,1.3H110.8z"/>
</svg>
