<svg version="1.1" xmlns="http://www.w3.org/2000/svg" viewBox="0 0 645.4 696.7">
	<path fill="#BCC0C4" d="M27.8,0h16.6c0.4,9.6,0.1,19.3,0.2,28.9c9.6,0.1,19.3,0,28.9,0c0,5.6,0,11.2,0,16.8c-9.6,0.1-19.3,0-28.9,0
		c-0.1,9.2,0,18.5-0.1,27.7c-5.6,0-11.2,0-16.7,0c-0.1-9.2,0-18.5-0.1-27.7c-9.2-0.1-18.5,0-27.7,0C0,40.1,0,34.5,0,29
		c9.2-0.1,18.5,0,27.7,0C27.8,19.3,27.8,9.6,27.8,0z"/>
	<path d="M162.9,86.5c20.7-24.8,51.3-40.9,83.4-44.2c36.4-3.7,73.8,10.4,99.6,36.1c15.2,15.2,26,35,29,56.4c1.2,8,0.9,16.1,1,24.2
		c0,9.5,0,19.1,0,28.6c32.7,0,65.3,0,98,0c0,57.5,0,115.1,0,172.7c57.2,0,114.3,0,171.5,0c0,112.2,0,224.3,0,336.5
		c-103.5,0-207,0-310.5,0l-0.6-1.1c-106.1-0.2-212.1,0-318.2-0.1c0-169.3,0-338.6,0-508c41.2,0,82.4,0,123.7,0
		c0-13.8-0.1-27.5,0.1-41.2C140.1,124.5,149,103.2,162.9,86.5 M239.8,60.2c-26.6,4.9-51.5,19.8-67.6,41.7
		c-9.5,13-15.5,28.9-15.6,45.1c-0.1,13.5,0,27.1,0,40.6c67.5,0,135,0,202.5,0c0-13.8,0.1-27.6,0-41.3c-0.3-19.1-8.5-37.6-21.2-51.8
		C313.8,67.5,275.5,53.6,239.8,60.2 M32.9,204.4c0,158.1,0,316.3,0,474.4c100.6,0,201.1,0,301.7,0c0-106.2,0-212.3,0-318.5
		c40.8,0,81.7,0,122.5,0c0-52,0-103.9,0-155.9c-27.1,0-54.1,0-81.2,0c0,15,0,30,0,45c5.4,0,10.7,0,16.1,0c0,5.6,0,11.3,0,16.9
		c-89.8-0.1-179.7,0-269.5-0.1c0-5.6,0-11.2,0-16.8c5.8,0,11.5,0,17.3,0c0-15,0-30,0-45C104.2,204.4,68.5,204.4,32.9,204.4
		 M156.6,204.4c0,15,0,30,0,45c67.5,0.1,135,0.1,202.5,0c0-15,0-30,0-44.9C291.6,204.4,224.1,204.4,156.6,204.4 M351.4,377.1
		c0,101,0,201.9,0,302.9c92.4,0,184.8,0,277.2,0c0-101,0-201.9,0-302.9C536.2,377.1,443.8,377.1,351.4,377.1z"/>
	<path fill="#BCC0C4" d="M457.1,49c5.6,0,11.2,0,16.8,0c0,9.6,0,19.3,0,28.9c9.2,0.1,18.5,0,27.7,0c0,5.6,0,11.2,0,16.8
		c-9.2,0-18.5,0-27.7,0c-0.1,9.2,0,18.5,0,27.7c-5.6,0-11.2,0.1-16.8,0c0-9.2,0-18.5,0-27.7c-9.6-0.1-19.3,0-28.9,0
		c0-5.6,0-11.2,0-16.8c9.6-0.1,19.3,0,28.9,0C457.1,68.3,457.1,58.7,457.1,49z"/>
	<path fill="#FFFFFF" d="M32.9,204.4c35.6,0,71.2,0,106.9,0c0,15,0,30,0,45c-5.8,0-11.5,0-17.3,0c0,5.6,0,11.2,0,16.8
		c89.8,0.1,179.7,0,269.5,0.1c0-5.6,0-11.3,0-16.9c-5.4,0-10.7,0-16.1,0c0-15,0-30,0-45c27.1,0,54.1,0,81.2,0c0,52,0,103.9,0,155.9
		c-40.8,0-81.7,0-122.5,0c0,106.2,0,212.3,0,318.5c-100.6,0-201.1,0-301.7,0C32.9,520.7,32.9,362.5,32.9,204.4z"/>
	<path fill="#FFFFFF" d="M156.6,204.4c67.5,0,135,0,202.5,0c0,15,0,30,0,44.9c-67.5,0.1-135,0.1-202.5,0
		C156.6,234.4,156.6,219.4,156.6,204.4z"/>
	<path fill="#BCC0C4" d="M566.8,220.5c5.6,0,11.2-0.1,16.8,0.1c0,9.6,0,19.2,0,28.8c9.6,0.1,19.3,0,28.9,0c0,5.6,0,11.2,0,16.8
		c-9.6,0.1-19.3,0-28.9,0c0,9.6,0,19.3,0,28.9c-5.6,0-11.2,0-16.8,0c0-9.6-0.1-19.2,0-28.8c-9.3-0.3-18.5,0-27.8-0.1
		c-0.1-5.5,0-11.1-0.1-16.7c9.2-0.3,18.5,0,27.8-0.1C566.8,239.8,566.7,230.1,566.8,220.5z"/>
	<path fill="#ED3A32" d="M351.4,377.1c92.4,0,184.8,0,277.2,0c0,100.9,0,201.9,0,302.9c-92.4,0-184.8,0-277.2,0
		C351.4,579,351.4,478,351.4,377.1 M403.7,420.9c0,5.6,0,11.2,0,16.8c5.4,0,10.7,0,16.1,0c0,22.4-0.1,44.9,0.1,67.3
		c0.9,32.2,24.2,62.1,54.9,71.7c17.2,5.6,36.4,3.9,52.7-3.8c26-12,43.9-39.3,44.5-67.9c0.1-22.4,0-44.9,0.1-67.3c5.4,0,10.7,0,16.1,0
		c0-5.6,0-11.2,0-16.8c-16.3,0-32.7,0-49,0c0,5.6,0,11.2,0,16.8c5.4,0,10.7,0,16.1,0c0,21.8,0,43.5,0,65.3c0,18.1-8.6,35.8-22.7,47.1
		c-12.4,10.2-29.1,15.1-45,12.4c-28-4.7-50.7-31-50.8-59.5c-0.1-21.8,0-43.5,0-65.3c5.4,0,10.7,0,16.1,0c0-5.6,0-11.2,0-16.8
		C436.3,420.9,420,420.9,403.7,420.9z M628.6,421.8h-15.4v-44.7h15.4V421.8z"/>
	<path d="M403.7,420.9c16.3,0,32.7,0,49,0c0,5.6,0,11.2,0,16.8c-5.4,0-10.7,0-16.1,0c0,21.8,0,43.5,0,65.3
		c0.1,28.4,22.8,54.8,50.8,59.5c15.9,2.8,32.6-2.2,45-12.4c14.1-11.3,22.7-29.1,22.7-47.1c0.1-21.8,0-43.5,0-65.3
		c-5.4,0-10.7,0-16.1,0c0-5.6,0-11.2,0-16.8c16.3,0,32.7,0,49,0c0,5.6,0,11.2,0,16.8c-5.4,0-10.7,0-16.1,0
		c-0.1,22.4,0.1,44.9-0.1,67.3c-0.6,28.6-18.5,56-44.5,67.9c-16.3,7.7-35.5,9.4-52.7,3.8c-30.6-9.7-53.9-39.5-54.9-71.7
		c-0.1-22.4,0-44.9-0.1-67.3c-5.4,0-10.7,0-16.1,0C403.7,432.1,403.7,426.5,403.7,420.9z"/>
</svg>
