<svg version="1.1" xmlns="http://www.w3.org/2000/svg" viewBox="0 0 810.1 694.4">
	<path d="M0,0c270.1,0,540.1,0,810.1,0c0,132,0,264,0,396c-75.1,0-150.1,0-225.2,0c-0.2,14.8,0.4,29.7-0.3,44.5
		c-1.3,19.2-8.3,38.1-20.2,53.3c-10.3,13.3-23.9,23.8-39,31.1c0,19.4,0,38.9,0,58.3c10.1,0,20.2,0,30.3,0c0,37,0,74,0,111.1H539v-1.1
		c0-31.1,0-62.1,0-93.2c-109.1,0-218.2,0-327.4,0c0,31,0,62.1,0,93.1v1.1h-16.8c0-37,0-74,0-111.1c9.7,0,19.4,0,29.2,0
		c-0.1-19.9,0-39.8-0.1-59.7c-24.5-19.4-46.4-44.2-55.7-74.5c-5.5-17.2-3.4-35.4-3.8-53.1c-54.8,0-109.7,0-164.5,0C0,264,0,132,0,0
		 M16.8,16.8c0,120.8,0,241.6,0,362.4c49.2,0,98.5,0,147.7,0c0-18.5,0-37,0-55.5c-14.8,0-29.5,0-44.3,0c0-7.1,0.4-14.5-2.4-21.1
		c-4.1-10.6-14-18.3-24.9-20.9c-5.9-1.5-12.1-1.1-18.2-1.2c0-54.6,0-109.2,0-163.8c6.2-0.1,12.5,0.4,18.5-1.4
		c12.3-3.3,22.5-13.3,25.8-25.7c1.6-5.6,1.1-11.5,1.2-17.2c189.9,0,379.9,0,569.8,0c0,6.4-0.4,13,1.7,19.2
		c3.6,11.7,13.7,20.8,25.5,23.8c6,1.7,12.2,1.2,18.4,1.3c0,54.1,0,108.2,0,162.2c-6.3,0.4-12.7,0.3-18.7,2.3
		c-11.9,3.5-22.3,13-25.6,25.2c-1.6,5.6-1.1,11.5-1.2,17.2c-134.6,0-269.1,0-403.7,0c0,8.9,0,17.7,0,26.5c27.6,1.1,55.4,10.4,76.2,29
		c143.6,0,287.2,0,430.8,0c0-120.8,0-241.6,0-362.4C534.5,16.8,275.6,16.8,16.8,16.8 M136.3,89.2c-3.6,22.2-22.7,40.3-44.8,43.6
		c0,43.8,0,87.6,0,131.4c8.4,1.2,16.6,4.4,23.6,9.2c11.2,7.6,19,20,21.2,33.4c9.4,0,18.8,0,28.2,0c0-31.5,0-63,0-94.4
		c-0.1-8.3,2.8-16.9,8.6-22.9c6.9-7.3,17.1-10.5,26.9-10.9c14.9-0.5,29.7,4,42.8,11c1.4,0.9,3.1,0.5,4.7,0.6c0,0.5,0.1,1.6,0.1,2.2
		c14.7,9.2,27.2,22.5,33.7,38.8c3.4,8.3,5,17.3,5,26.3c0,16.5,0,32.9,0,49.4c129.2,0,258.4,0,387.5,0c3.7-22.2,23-39.6,44.8-43.4
		c0-43.5,0-87.1,0-130.6c-8.7-1.4-17.1-4.7-24.1-9.9c-11-7.9-18.5-20.4-20.7-33.7C494.6,89.2,315.5,89.2,136.3,89.2 M187.7,199
		c-4.8,3-6.6,8.9-6.4,14.3c0,70,0,140.1,0,210.1c-0.1,19.1,8.2,37.3,19.2,52.5c11.1,15.1,24.8,28.5,40.3,39c0,22.8,0,45.6,0,68.3
		c89.3,0,178.6,0,267.9,0c0-23.3,0-46.5,0-69.8c25.5-8.5,47.6-28.8,55.6-54.8c3-9.4,4-19.4,3.9-29.3c0-11.1,0-22.3,0-33.4
		c-63.4,0-126.8,0-190.2,0c17,22.7,26.3,50.7,28.5,78.8c-5.6,0.2-11.2,0.5-16.8,0.7c-1.8-21.7-8.4-43.2-19.9-61.7
		c-10.3-16.7-25.7-30.4-43.9-38c-17.7-7.6-37.3-9.4-56.4-8.9c0-36.8,0-73.6,0-110.5c0-13.3-5.5-26.2-14.4-36
		c-12.1-13.3-28.9-22.5-46.9-24.7C201.3,194.9,193.8,195.2,187.7,199z"/>
	<path fill="#FFFFFF" d="M16.8,16.8c258.9,0,517.7,0,776.6,0c0,120.8,0,241.6,0,362.4c-143.6,0-287.2,0-430.8,0
		c-20.8-18.6-48.6-27.9-76.2-29c0-8.8,0-17.7,0-26.5c134.5,0,269.1,0,403.7,0c0.1-5.8-0.4-11.6,1.2-17.2
		c3.3-12.2,13.7-21.7,25.6-25.2c6-2,12.4-2,18.7-2.3c0-54.1,0-108.2,0-162.2c-6.1-0.1-12.4,0.4-18.4-1.3c-11.8-3-21.9-12.2-25.5-23.8
		c-2.1-6.2-1.6-12.8-1.7-19.2c-189.9,0-379.9,0-569.8,0c-0.1,5.8,0.4,11.6-1.2,17.2c-3.3,12.3-13.6,22.3-25.8,25.7
		c-6,1.9-12.3,1.3-18.5,1.4c0,54.6,0,109.2,0,163.8c6.1,0.1,12.2-0.3,18.2,1.2c10.9,2.6,20.8,10.3,24.9,20.9
		c2.9,6.7,2.4,14.1,2.4,21.1c14.8,0,29.5,0,44.3,0c0,18.5,0,37,0,55.5c-49.2,0-98.5,0-147.7,0C16.8,258.4,16.8,137.6,16.8,16.8z"/>
	<path fill="#ED3A32" d="M136.3,89.2c179.2,0,358.4,0,537.6,0c2.2,13.4,9.7,25.8,20.7,33.7c7.1,5.2,15.5,8.5,24.1,9.9
		c0,43.5,0,87.1,0,130.6c-21.8,3.8-41.2,21.2-44.8,43.4c-129.2,0-258.4,0-387.5,0c0-16.5,0-33,0-49.4c0-9-1.6-18-5-26.3
		c-6.5-16.2-19-29.5-33.7-38.8c0-0.5-0.1-1.6-0.1-2.2c-1.6-0.1-3.3,0.3-4.7-0.6c-13.1-7-27.8-11.5-42.8-11c-9.8,0.4-20,3.6-26.9,10.9
		c-5.9,6.1-8.7,14.6-8.6,22.9c0,31.5,0,63,0,94.4c-9.4,0-18.8,0-28.2,0c-2.2-13.4-10-25.7-21.2-33.4c-7-4.9-15.2-8-23.6-9.2
		c0-43.8,0-87.6,0-131.4C113.6,129.5,132.7,111.4,136.3,89.2 M394.3,118.6c-19.3,2.8-37,13.9-48.6,29.4
		c-18.3,23.9-21.8,57.8-9.4,85.1c7.1,16,19.5,29.7,35.1,37.8c13.9,7.3,30.2,10,45.7,7.3c17.2-2.9,33-12.2,44.3-25.5
		c21-24.2,25.6-60.8,12-89.7c-7.3-15.9-19.9-29.5-35.6-37.4C424.5,118.9,409.1,116.4,394.3,118.6 M562.6,207c14.8,0,29.5,0,44.3,0
		c0-5.6,0-11.2,0-16.8c-14.8,0-29.5,0-44.3,0C562.5,195.8,562.6,201.4,562.6,207z"/>
	<path d="M394.3,118.6c14.8-2.3,30.2,0.3,43.5,7c15.7,7.9,28.3,21.4,35.6,37.4c13.6,28.9,9,65.5-12,89.7
		c-11.2,13.2-27.1,22.6-44.3,25.5c-15.5,2.7-31.8,0-45.7-7.3c-15.6-8.1-28-21.8-35.1-37.8c-12.4-27.3-8.9-61.2,9.4-85.1
		C357.4,132.5,375,121.5,394.3,118.6 M401.3,134.8c-13.6,0.9-26.6,7.1-36.2,16.6c-18.3,17.8-24.1,46.6-15.3,70.4
		c5.7,16.2,18.1,30.1,34.1,36.6c13.6,5.7,29.5,5.6,43-0.3c15.6-6.6,27.7-20.3,33.3-36.2c8.8-23.8,3.1-52.5-15.2-70.4
		C433.7,140,417.5,133.5,401.3,134.8z"/>
	<path fill="#FFFFFF" d="M401.3,134.8c16.1-1.2,32.4,5.3,43.8,16.7c18.2,17.9,24,46.6,15.2,70.4c-5.7,15.9-17.7,29.5-33.3,36.2
		c-13.5,5.9-29.4,6-43,0.3c-16-6.5-28.4-20.4-34.1-36.6c-8.8-23.8-3-52.6,15.3-70.4C374.7,141.8,387.8,135.6,401.3,134.8z"/>
	<path d="M562.6,207c0-5.6,0-11.2,0-16.8c14.8,0,29.5,0,44.3,0c0,5.6,0,11.2,0,16.8C592.1,206.9,577.3,207,562.6,207z"/>
	<path fill="#FFFFFF" d="M187.7,199c6-3.8,13.6-4.1,20.5-3.4c17.9,2.1,34.8,11.3,46.9,24.7c8.8,9.8,14.4,22.7,14.4,36
		c0.1,36.8,0,73.6,0,110.5c19.1-0.5,38.7,1.3,56.4,8.9c18.2,7.6,33.6,21.2,43.9,38c11.5,18.5,18.1,40,19.9,61.7
		c5.6-0.2,11.2-0.4,16.8-0.7c-2.2-28.1-11.5-56.1-28.5-78.8c63.4,0,126.8,0,190.2,0c0,11.1,0,22.3,0,33.4c0.1,9.9-0.9,19.8-3.9,29.3
		c-8,26-30.1,46.3-55.6,54.8c0,23.3,0,46.5,0,69.8c-89.3,0-178.6,0-267.9,0c0-22.8,0-45.6,0-68.3c-15.5-10.5-29.2-23.9-40.3-39
		c-11-15.2-19.3-33.4-19.2-52.5c0-70,0-140.1,0-210.1C181.1,207.9,183,202.1,187.7,199z"/>
	<path fill="#E9EAEB" d="M211.6,600.2c109.1,0,218.2,0,327.4,0c0,31,0,62.1,0,93.2c-109.1-0.1-218.2-0.1-327.4,0
		C211.6,662.2,211.6,631.2,211.6,600.2 M247.6,641.7c0,5.6,0,11.2,0,16.8c15.2,0,30.3,0,45.5,0c0-5.6,0-11.2,0-16.8
		C277.9,641.7,262.7,641.7,247.6,641.7z"/>
	<path d="M247.6,641.7c15.2,0,30.3,0,45.5,0c0,5.6,0,11.2,0,16.8c-15.2,0-30.3,0-45.5,0C247.6,652.9,247.6,647.3,247.6,641.7z"/>
	<path fill="#FFFFFF" d="M211.6,693.3c109.1-0.1,218.2-0.1,327.4,0v1.1H211.6V693.3z"/>
</svg>
