<svg version="1.1" xmlns="http://www.w3.org/2000/svg" viewBox="0 0 736.9 700">
	<path fill="#BCC0C4" d="M351.7,0h34.2c23.7,1.4,47.4,4.4,70.4,10.1c65.1,15.7,125.9,49.4,173.2,96.8c47.5,46.8,81.6,106.9,97.3,171.7
		c9.4,38.6,12.2,78.8,8.5,118.4c-6.2,66.7-31.6,131.3-71.9,184.8c-4.4-3.3-8.8-6.5-13.1-9.9c18.5-24.8,33.9-51.9,45.4-80.6
		c26.9-66.8,32.1-142.1,14.4-211.9c-9.2-36.3-24.4-71-44.6-102.4c-36.1-55.7-88.1-101-148.6-128.5C443.7,14.4,358.7,7.3,280.5,27
		c-60.2,15.4-116.4,46.7-160.5,90.5c-45.9,44.8-78.8,102.7-93.9,165C9.3,351.8,14.6,426.2,41.1,492.3c11.4,28.4,26.7,55.2,45.4,79.5
		c-4.3,3.4-8.6,6.8-13,10.1c-22.4-29.2-40.3-61.8-52.6-96.5C-1.5,422.9-5.9,354.1,7.7,289.2c14.4-68.5,49.4-132.5,99.2-181.8
		c47.8-48.1,109.5-82.1,175.4-97.7C305,4.2,328.4,1.3,351.7,0z"/>
	<path d="M298.4,104.9c19.6-12.5,43-17.9,66.1-18.4c20.3-0.5,41,2.7,59.6,10.9c17.3,7.6,32.6,20,43.4,35.6c13.1,19,19.8,42,20.5,64.9
		c1.1,15.3,2.3,30.5,3.6,45.8c4.3,4.3,8.6,8.6,12.8,12.8c0.1,13.9-0.9,27.9-3.2,41.6c-2,11.4-4.9,23.1-12.2,32.4
		c-3.6,6.6-7,13.4-9.8,20.5c-2.7,14.1-6.5,28.3-14.1,40.6c-2.9,4.5-6.9,8.2-10.8,11.8c0,17.5,0,35,0,52.5c1-0.8,2-1.6,3-2.4
		c31.5,13.2,63,26.3,94.4,39.5c11.6,5.9,22.9,12.6,32.9,21c11.3,9.7,20.4,22.6,23.5,37.3c0.2,18.4,0,36.9,0.1,55.3
		c-28.6,28.7-63,51.5-100.5,66.9c-39.9,16.6-82.9,25.2-126.1,26.6h-27c-51-1.8-101.8-13.7-147.3-36.8c-28.9-14.6-55.4-33.8-78.3-56.7
		c0-16.8,0-33.7,0-50.5c-0.6-7.4,2.8-14.3,5.9-20.8c7.8-15.3,21.9-26.2,36.5-34.6c6.1-3.4,12-7.2,18.6-9.4c31-11.3,62-22.7,93-34.1
		c0-17.8,0-35.5,0-53.2c-5.2-4.6-10.6-9.2-13.8-15.4c-6.7-11.8-9.3-25.3-12.4-38.4c-2.6-7.3-6.6-14-10.5-20.7
		c-6-8.8-8.6-19.3-10.5-29.6c-2.6-14.3-3.9-28.9-4.1-43.4c4.6-4.3,9.3-8.6,14-12.8c1.1-18.5,2.3-37,4.3-55.4
		c1.9-17,6.7-33.9,15.4-48.7C273.1,125.6,284.7,113.6,298.4,104.9 M296.9,126.4c-13.3,11.4-22.4,27-27.1,43.8
		c-3.5,11.8-4.4,24.2-5.5,36.4c-1.2,14.9-2.1,29.7-3,44.6c-4.4,4.1-8.9,8.2-13.4,12.3c0.5,10.9,1.6,21.8,3.5,32.5
		c1.4,7.1,2.8,14.5,6.2,21c5.3,8.8,10.7,17.7,14.3,27.4c2.5,8.9,4,18.1,7.2,26.9c2.2,6,4.9,12.1,9.9,16.3
		c13.3,12,28.4,22.1,44.2,30.5c10.8,5.4,22,10.8,34.2,11.6c10.8,0,21-4.4,30.7-8.8c15.6-7.6,30.3-17.2,43.7-28.4
		c4.1-3.6,8.4-7.1,10.8-12.1c5.8-10.5,8.4-22.4,10.7-34c4.2-10.4,9-20.7,15.4-29.9c3.2-5.9,4.7-12.6,5.9-19.1
		c1.9-11.2,3-22.5,3.2-33.8c-4.1-4.1-8.2-8.2-12.2-12.3c-1.5-18.3-3.1-36.7-4.3-55.1c-0.6-15.6-4.8-31-12-44.8
		c-8.8-16.6-23.1-30-40.1-37.9c-20.4-9.6-43.6-11.8-65.9-9.7C332.9,105.7,312.5,112.7,296.9,126.4 M299.2,416.4c0,14.4,0,28.8,0,43.2
		c13.4,12.8,29.2,23.4,46.9,29.1c14.3,4.6,30,4.6,44.4,0.6c18.8-5.1,36.2-14.5,52.4-25.2c-1.7,0-3.4,0-5.1,0c0-15.9,0-31.9,0-47.8
		c-9.4,6.6-19.2,12.6-29.4,17.7c-11.9,5.9-24.5,11.1-37.9,12c-9.2,0.4-18.3-2.1-26.8-5.3C327.8,434.6,313.1,426,299.2,416.4
		 M459.8,472.3c-19.8,14.3-41.5,26.3-65.2,32.8c-18.5,5.1-38.6,4.8-56.7-1.8c-18.4-6.5-34.9-17.6-49.1-30.9
		c-30.7,11.2-61.5,22.5-92.2,33.8c-6.2,2-11.7,5.5-17.3,8.7c-11.9,6.9-23.4,15.5-29.9,27.9c-2,4.2-4.3,8.5-4.1,13.3
		c0.1,14.5,0,29,0,43.5c35.8,34.5,80.8,58.8,128.6,71.8c41.9,11.5,85.9,14.6,129,10.8c38.9-3.5,77.2-13.5,112.5-30.2
		c28-13.2,53.9-31,76.2-52.4c-0.1-15.5,0.2-31.1-0.1-46.7c-2.1-8.1-6.8-15.4-12.5-21.6c-9.5-10-21.6-16.9-33.7-23.3
		C516.9,496.1,488.3,484.2,459.8,472.3z"/>
	<path fill="#FFFFFF" d="M296.9,126.4c15.6-13.7,36-20.7,56.4-22.8c22.3-2.2,45.5,0.1,65.9,9.7c17,7.9,31.3,21.3,40.1,37.9
		c7.2,13.8,11.4,29.2,12,44.8c1.2,18.4,2.8,36.7,4.3,55.1c4.1,4.1,8.1,8.2,12.2,12.3c-0.3,11.3-1.3,22.7-3.2,33.8
		c-1.2,6.5-2.7,13.2-5.9,19.1c-6.3,9.3-11.2,19.5-15.4,29.9c-2.3,11.7-4.9,23.5-10.7,34c-2.3,5-6.7,8.6-10.8,12.1
		c-13.4,11.2-28,20.8-43.7,28.4c-9.7,4.4-19.9,8.8-30.7,8.8c-12.2-0.9-23.5-6.2-34.2-11.6c-15.8-8.4-30.9-18.4-44.2-30.5
		c-5-4.2-7.7-10.3-9.9-16.3c-3.2-8.7-4.6-18-7.2-26.9c-3.6-9.7-9-18.6-14.3-27.4c-3.5-6.5-4.9-13.8-6.2-21
		c-1.8-10.8-2.9-21.6-3.5-32.5c4.5-4.1,8.9-8.2,13.4-12.3c0.9-14.9,1.8-29.8,3-44.6c1.1-12.2,2-24.6,5.5-36.4
		C274.5,153.4,283.7,137.7,296.9,126.4z"/>
	<path fill="#FFFFFF" d="M299.2,416.4c13.9,9.6,28.7,18.2,44.5,24.2c8.6,3.2,17.6,5.6,26.8,5.3c13.4-0.8,26-6.1,37.9-12
		c10.2-5.2,20-11.2,29.4-17.7c0,15.9,0,31.9,0,47.8c1.7,0,3.4,0,5.1,0c-16.2,10.7-33.6,20.1-52.4,25.2c-14.5,4.1-30.1,4-44.4-0.6
		c-17.7-5.7-33.5-16.3-46.9-29.1C299.1,445.2,299.2,430.8,299.2,416.4z"/>
	<path fill="#ED3A32" d="M459.8,472.3c28.5,12,57.1,23.8,85.6,35.9c12,6.4,24.2,13.3,33.7,23.3c5.7,6.1,10.4,13.4,12.5,21.6
		c0.2,15.5,0,31.1,0.1,46.7c-22.4,21.4-48.2,39.2-76.2,52.4c-35.3,16.7-73.6,26.7-112.5,30.2c-43.2,3.8-87.2,0.7-129-10.8
		c-47.8-13-92.9-37.3-128.6-71.8c0-14.5,0-29,0-43.5c-0.3-4.8,2-9.1,4.1-13.3c6.5-12.4,18.1-21,29.9-27.9c5.6-3.1,11.1-6.7,17.3-8.7
		c30.8-11.2,61.5-22.5,92.2-33.8c14.2,13.2,30.7,24.4,49.1,30.9c18.1,6.6,38.2,6.9,56.7,1.8C418.2,498.6,440,486.5,459.8,472.3z"/>
</svg>
